{
  "title" : "",
  "description" : "",
  "author" : "",
  "width" : 1920.0,
  "height" : 1080.0,
  "version" : "0.5",
  "editRate" : 30,
  "authoringClientName" :  {
    "name" : "Camtasia Studio",
    "platform" : "Windows",
    "version" : "9.0"
  },
  "sourceBin" : [
    {
      "id" : 1,
      "src" : "C:\\Users\\bakers.INTRA\\Desktop\\Video Tutorials\\PKH\\ECU_logo with room for text.jpg",
      "rect" : [0, 0, 421, 640],
      "lastMod" : "20241103T201934",
      "sourceTracks" : [
        {
          "range" : [0, 1],
          "type" : 1,
          "editRate" : 10000000,
          "trackRect" : [0, 0, 421, 640],
          "sampleRate" : 0,
          "bitDepth" : 24,
          "numChannels" : 0,
          "metaData" : ""
        }
      ]
    },
    {
      "id" : 2,
      "src" : "C:\\Users\\bakers.INTRA\\Documents\\Camtasia Studio\\Rec 11-03-24.trec",
      "rect" : [0, 0, 1920, 1080],
      "lastMod" : "20241103T210335",
      "sourceTracks" : [
        {
          "range" : [0, 11091],
          "type" : 0,
          "editRate" : 30,
          "trackRect" : [0, 0, 1920, 1080],
          "sampleRate" : 29,
          "bitDepth" : 0,
          "numChannels" : 0,
          "metaData" : "Rec 11-03-24.trec;"
        },
        {
          "range" : [0, 11091000],
          "type" : 0,
          "editRate" : 30000,
          "trackRect" : [0, 0, 640, 480],
          "sampleRate" : 30,
          "bitDepth" : 0,
          "numChannels" : 0,
          "metaData" : ""
        },
        {
          "range" : [0, 16296960],
          "type" : 2,
          "editRate" : 44100,
          "trackRect" : [0, 0, 0, 0],
          "sampleRate" : 44100,
          "bitDepth" : 16,
          "numChannels" : 2,
          "metaData" : ""
        }
      ]
    },
    {
      "id" : 3,
      "src" : "C:\\Users\\bakers.INTRA\\Documents\\Camtasia Studio\\Rec 11-03-24 2.trec",
      "rect" : [0, 0, 1920, 1080],
      "lastMod" : "20241103T214234",
      "sourceTracks" : [
        {
          "range" : [0, 8970],
          "type" : 0,
          "editRate" : 30,
          "trackRect" : [0, 0, 1920, 1080],
          "sampleRate" : 28,
          "bitDepth" : 0,
          "numChannels" : 0,
          "metaData" : "Rec 11-03-24 2.trec;"
        }
      ]
    },
    {
      "id" : 4,
      "src" : "C:\\Users\\bakers.INTRA\\Desktop\\Video Tutorials\\PKH\\camoverflowcartoon.JPG",
      "rect" : [0, 0, 683, 592],
      "lastMod" : "20241103T223125",
      "sourceTracks" : [
        {
          "range" : [0, 1],
          "type" : 1,
          "editRate" : 10000000,
          "trackRect" : [0, 0, 683, 592],
          "sampleRate" : 0,
          "bitDepth" : 24,
          "numChannels" : 0,
          "metaData" : ""
        }
      ]
    },
    {
      "id" : 5,
      "src" : "C:\\Users\\bakers.INTRA\\Documents\\Camtasia Studio\\Rec 11-03-24 3.trec",
      "rect" : [0, 0, 1920, 1080],
      "lastMod" : "20241103T223650",
      "sourceTracks" : [
        {
          "range" : [0, 1714],
          "type" : 0,
          "editRate" : 30,
          "trackRect" : [0, 0, 1920, 1080],
          "sampleRate" : 27,
          "bitDepth" : 0,
          "numChannels" : 0,
          "metaData" : "Rec 11-03-24 3.trec;"
        },
        {
          "range" : [0, 2514944],
          "type" : 2,
          "editRate" : 44100,
          "trackRect" : [0, 0, 0, 0],
          "sampleRate" : 44100,
          "bitDepth" : 16,
          "numChannels" : 2,
          "metaData" : ""
        }
      ]
    },
    {
      "id" : 6,
      "src" : "C:\\Users\\bakers.INTRA\\Documents\\Camtasia Studio\\Rec 11-03-24 4.trec",
      "rect" : [0, 0, 1920, 1080],
      "lastMod" : "20241103T224842",
      "sourceTracks" : [
        {
          "range" : [0, 2917],
          "type" : 0,
          "editRate" : 30,
          "trackRect" : [0, 0, 1920, 1080],
          "sampleRate" : 27,
          "bitDepth" : 0,
          "numChannels" : 0,
          "metaData" : "Rec 11-03-24 4.trec;"
        },
        {
          "range" : [0, 4279296],
          "type" : 2,
          "editRate" : 44100,
          "trackRect" : [0, 0, 0, 0],
          "sampleRate" : 44100,
          "bitDepth" : 16,
          "numChannels" : 2,
          "metaData" : ""
        }
      ]
    },
    {
      "id" : 7,
      "src" : "C:\\Users\\bakers.INTRA\\Documents\\Camtasia Studio\\Rec 11-03-24 5.trec",
      "rect" : [0, 0, 1920, 1080],
      "lastMod" : "20241103T230602",
      "sourceTracks" : [
        {
          "range" : [0, 3665],
          "type" : 0,
          "editRate" : 30,
          "trackRect" : [0, 0, 1920, 1080],
          "sampleRate" : 27,
          "bitDepth" : 0,
          "numChannels" : 0,
          "metaData" : "Rec 11-03-24 5.trec;"
        },
        {
          "range" : [0, 5382144],
          "type" : 2,
          "editRate" : 44100,
          "trackRect" : [0, 0, 0, 0],
          "sampleRate" : 44100,
          "bitDepth" : 16,
          "numChannels" : 2,
          "metaData" : ""
        }
      ]
    },
    {
      "id" : 8,
      "src" : "C:\\Users\\bakers.INTRA\\Documents\\Camtasia Studio\\Rec 11-03-24 6.trec",
      "rect" : [0, 0, 1920, 1080],
      "lastMod" : "20241103T232211",
      "sourceTracks" : [
        {
          "range" : [0, 181],
          "type" : 0,
          "editRate" : 30,
          "trackRect" : [0, 0, 1920, 1080],
          "sampleRate" : 28,
          "bitDepth" : 0,
          "numChannels" : 0,
          "metaData" : "Rec 11-03-24 6.trec;"
        },
        {
          "range" : [0, 266240],
          "type" : 2,
          "editRate" : 44100,
          "trackRect" : [0, 0, 0, 0],
          "sampleRate" : 44100,
          "bitDepth" : 16,
          "numChannels" : 2,
          "metaData" : ""
        }
      ]
    },
    {
      "id" : 9,
      "src" : "C:\\Users\\bakers.INTRA\\Documents\\Camtasia Studio\\Rec 11-03-24 8.trec",
      "rect" : [0, 0, 1920, 1080],
      "lastMod" : "20241103T234434",
      "sourceTracks" : [
        {
          "range" : [0, 21614],
          "type" : 0,
          "editRate" : 30,
          "trackRect" : [0, 0, 1920, 1080],
          "sampleRate" : 28,
          "bitDepth" : 0,
          "numChannels" : 0,
          "metaData" : "Rec 11-03-24 8.trec;"
        },
        {
          "range" : [0, 31775744],
          "type" : 2,
          "editRate" : 44100,
          "trackRect" : [0, 0, 0, 0],
          "sampleRate" : 44100,
          "bitDepth" : 16,
          "numChannels" : 2,
          "metaData" : ""
        }
      ]
    },
    {
      "id" : 10,
      "src" : "C:\\Users\\bakers.INTRA\\Documents\\Camtasia Studio\\Rec 11-03-24 9.trec",
      "rect" : [0, 0, 1920, 1080],
      "lastMod" : "20241103T235023",
      "sourceTracks" : [
        {
          "range" : [0, 1512],
          "type" : 0,
          "editRate" : 30,
          "trackRect" : [0, 0, 1920, 1080],
          "sampleRate" : 28,
          "bitDepth" : 0,
          "numChannels" : 0,
          "metaData" : "Rec 11-03-24 9.trec;"
        }
      ]
    },
    {
      "id" : 11,
      "src" : "C:\\Users\\bakers.INTRA\\Documents\\Camtasia Studio\\Rec 11-03-24 11.trec",
      "rect" : [0, 0, 1920, 1080],
      "lastMod" : "20241104T001123",
      "sourceTracks" : [
        {
          "range" : [0, 4226],
          "type" : 0,
          "editRate" : 30,
          "trackRect" : [0, 0, 1920, 1080],
          "sampleRate" : 27,
          "bitDepth" : 0,
          "numChannels" : 0,
          "metaData" : "Rec 11-03-24 11.trec;"
        },
        {
          "range" : [0, 6197248],
          "type" : 2,
          "editRate" : 44100,
          "trackRect" : [0, 0, 0, 0],
          "sampleRate" : 44100,
          "bitDepth" : 16,
          "numChannels" : 2,
          "metaData" : ""
        }
      ]
    },
    {
      "id" : 12,
      "src" : "C:\\Users\\bakers.INTRA\\Documents\\Camtasia Studio\\Rec 11-03-24 12.trec",
      "rect" : [0, 0, 1920, 1080],
      "lastMod" : "20241104T001355",
      "sourceTracks" : [
        {
          "range" : [0, 207],
          "type" : 0,
          "editRate" : 30,
          "trackRect" : [0, 0, 1920, 1080],
          "sampleRate" : 27,
          "bitDepth" : 0,
          "numChannels" : 0,
          "metaData" : "Rec 11-03-24 12.trec;"
        },
        {
          "range" : [0, 287744],
          "type" : 2,
          "editRate" : 44100,
          "trackRect" : [0, 0, 0, 0],
          "sampleRate" : 44100,
          "bitDepth" : 16,
          "numChannels" : 2,
          "metaData" : ""
        }
      ]
    },
    {
      "id" : 13,
      "src" : "C:\\Users\\bakers.INTRA\\Desktop\\Video Tutorials\\PKH\\part3range.JPG",
      "rect" : [0, 0, 664, 674],
      "lastMod" : "20241104T003608",
      "sourceTracks" : [
        {
          "range" : [0, 1],
          "type" : 1,
          "editRate" : 10000000,
          "trackRect" : [0, 0, 664, 674],
          "sampleRate" : 0,
          "bitDepth" : 24,
          "numChannels" : 0,
          "metaData" : ""
        }
      ]
    },
    {
      "id" : 14,
      "src" : "C:\\Users\\bakers.INTRA\\Desktop\\Video Tutorials\\PKH\\part3showipintbrief.JPG",
      "rect" : [0, 0, 662, 423],
      "lastMod" : "20241104T002847",
      "sourceTracks" : [
        {
          "range" : [0, 1],
          "type" : 1,
          "editRate" : 10000000,
          "trackRect" : [0, 0, 662, 423],
          "sampleRate" : 0,
          "bitDepth" : 24,
          "numChannels" : 0,
          "metaData" : ""
        }
      ]
    },
    {
      "id" : 15,
      "src" : "C:\\Users\\bakers.INTRA\\Desktop\\Video Tutorials\\PKH\\part3portsec.JPG",
      "rect" : [0, 0, 493, 520],
      "lastMod" : "20241104T005147",
      "sourceTracks" : [
        {
          "range" : [0, 1],
          "type" : 1,
          "editRate" : 10000000,
          "trackRect" : [0, 0, 493, 520],
          "sampleRate" : 0,
          "bitDepth" : 24,
          "numChannels" : 0,
          "metaData" : ""
        }
      ]
    },
    {
      "id" : 16,
      "src" : "C:\\Users\\bakers.INTRA\\Desktop\\Video Tutorials\\PKH\\part3showportsecurityinterface.JPG",
      "rect" : [0, 0, 393, 215],
      "lastMod" : "20241104T005839",
      "sourceTracks" : [
        {
          "range" : [0, 1],
          "type" : 1,
          "editRate" : 10000000,
          "trackRect" : [0, 0, 393, 215],
          "sampleRate" : 0,
          "bitDepth" : 24,
          "numChannels" : 0,
          "metaData" : ""
        }
      ]
    },
    {
      "id" : 17,
      "src" : "C:\\Users\\bakers.INTRA\\Desktop\\Video Tutorials\\PKH\\part3switcportsecoptions.JPG",
      "rect" : [0, 0, 505, 140],
      "lastMod" : "20241104T010218",
      "sourceTracks" : [
        {
          "range" : [0, 1],
          "type" : 1,
          "editRate" : 10000000,
          "trackRect" : [0, 0, 505, 140],
          "sampleRate" : 0,
          "bitDepth" : 24,
          "numChannels" : 0,
          "metaData" : ""
        }
      ]
    },
    {
      "id" : 18,
      "src" : "C:\\Users\\bakers.INTRA\\Desktop\\Video Tutorials\\PKH\\part3wholescreen.JPG",
      "rect" : [0, 0, 1259, 703],
      "lastMod" : "20241104T011213",
      "sourceTracks" : [
        {
          "range" : [0, 1],
          "type" : 1,
          "editRate" : 10000000,
          "trackRect" : [0, 0, 1259, 703],
          "sampleRate" : 0,
          "bitDepth" : 24,
          "numChannels" : 0,
          "metaData" : ""
        }
      ]
    },
    {
      "id" : 19,
      "src" : "C:\\Users\\bakers.INTRA\\Desktop\\Video Tutorials\\PKH\\part3swmaxmac.JPG",
      "rect" : [0, 0, 671, 92],
      "lastMod" : "20241104T012021",
      "sourceTracks" : [
        {
          "range" : [0, 1],
          "type" : 1,
          "editRate" : 10000000,
          "trackRect" : [0, 0, 671, 92],
          "sampleRate" : 0,
          "bitDepth" : 24,
          "numChannels" : 0,
          "metaData" : ""
        }
      ]
    },
    {
      "id" : 20,
      "src" : "C:\\Users\\bakers.INTRA\\Documents\\Camtasia Studio\\Rec 11-03-24 13.trec",
      "rect" : [0, 0, 1920, 1080],
      "lastMod" : "20241104T012237",
      "sourceTracks" : [
        {
          "range" : [0, 178],
          "type" : 0,
          "editRate" : 30,
          "trackRect" : [0, 0, 1920, 1080],
          "sampleRate" : 27,
          "bitDepth" : 0,
          "numChannels" : 0,
          "metaData" : "Rec 11-03-24 13.trec;"
        },
        {
          "range" : [0, 243712],
          "type" : 2,
          "editRate" : 44100,
          "trackRect" : [0, 0, 0, 0],
          "sampleRate" : 44100,
          "bitDepth" : 16,
          "numChannels" : 2,
          "metaData" : ""
        }
      ]
    },
    {
      "id" : 21,
      "src" : "C:\\Users\\bakers.INTRA\\Documents\\Camtasia Studio\\Rec 11-03-24 14.trec",
      "rect" : [0, 0, 1920, 1080],
      "lastMod" : "20241104T012935",
      "sourceTracks" : [
        {
          "range" : [0, 727],
          "type" : 0,
          "editRate" : 30,
          "trackRect" : [0, 0, 1920, 1080],
          "sampleRate" : 28,
          "bitDepth" : 0,
          "numChannels" : 0,
          "metaData" : "Rec 11-03-24 14.trec;"
        },
        {
          "range" : [0, 1059840],
          "type" : 2,
          "editRate" : 44100,
          "trackRect" : [0, 0, 0, 0],
          "sampleRate" : 44100,
          "bitDepth" : 16,
          "numChannels" : 2,
          "metaData" : ""
        }
      ]
    },
    {
      "id" : 22,
      "src" : "C:\\Users\\bakers.INTRA\\Documents\\Camtasia Studio\\Rec 11-03-24 15.trec",
      "rect" : [0, 0, 1920, 1080],
      "lastMod" : "20241104T013122",
      "sourceTracks" : [
        {
          "range" : [0, 841],
          "type" : 0,
          "editRate" : 30,
          "trackRect" : [0, 0, 1920, 1080],
          "sampleRate" : 27,
          "bitDepth" : 0,
          "numChannels" : 0,
          "metaData" : "Rec 11-03-24 15.trec;"
        },
        {
          "range" : [0, 1235968],
          "type" : 2,
          "editRate" : 44100,
          "trackRect" : [0, 0, 0, 0],
          "sampleRate" : 44100,
          "bitDepth" : 16,
          "numChannels" : 2,
          "metaData" : ""
        }
      ]
    },
    {
      "id" : 23,
      "src" : "C:\\Users\\bakers.INTRA\\Desktop\\Video Tutorials\\PKH\\part3staticmac.JPG",
      "rect" : [0, 0, 674, 307],
      "lastMod" : "20241104T013557",
      "sourceTracks" : [
        {
          "range" : [0, 1],
          "type" : 1,
          "editRate" : 10000000,
          "trackRect" : [0, 0, 674, 307],
          "sampleRate" : 0,
          "bitDepth" : 24,
          "numChannels" : 0,
          "metaData" : ""
        }
      ]
    },
    {
      "id" : 24,
      "src" : "C:\\Users\\bakers.INTRA\\Documents\\Camtasia Studio\\Rec 11-03-24 16.trec",
      "rect" : [0, 0, 1920, 1080],
      "lastMod" : "20241104T015531",
      "sourceTracks" : [
        {
          "range" : [0, 1067],
          "type" : 0,
          "editRate" : 30,
          "trackRect" : [0, 0, 1920, 1080],
          "sampleRate" : 27,
          "bitDepth" : 0,
          "numChannels" : 0,
          "metaData" : "Rec 11-03-24 16.trec;"
        },
        {
          "range" : [0, 1566720],
          "type" : 2,
          "editRate" : 44100,
          "trackRect" : [0, 0, 0, 0],
          "sampleRate" : 44100,
          "bitDepth" : 16,
          "numChannels" : 2,
          "metaData" : ""
        }
      ]
    },
    {
      "id" : 25,
      "src" : "C:\\Users\\bakers.INTRA\\Desktop\\Video Tutorials\\PKH\\part3stickymac1.JPG",
      "rect" : [0, 0, 652, 76],
      "lastMod" : "20241104T015951",
      "sourceTracks" : [
        {
          "range" : [0, 1],
          "type" : 1,
          "editRate" : 10000000,
          "trackRect" : [0, 0, 652, 76],
          "sampleRate" : 0,
          "bitDepth" : 24,
          "numChannels" : 0,
          "metaData" : ""
        }
      ]
    },
    {
      "id" : 26,
      "src" : "C:\\Users\\bakers.INTRA\\Documents\\Camtasia Studio\\Rec 11-03-24 17.trec",
      "rect" : [0, 0, 1920, 1080],
      "lastMod" : "20241104T020615",
      "sourceTracks" : [
        {
          "range" : [0, 1024],
          "type" : 0,
          "editRate" : 30,
          "trackRect" : [0, 0, 1920, 1080],
          "sampleRate" : 27,
          "bitDepth" : 0,
          "numChannels" : 0,
          "metaData" : "Rec 11-03-24 17.trec;"
        },
        {
          "range" : [0, 1501184],
          "type" : 2,
          "editRate" : 44100,
          "trackRect" : [0, 0, 0, 0],
          "sampleRate" : 44100,
          "bitDepth" : 16,
          "numChannels" : 2,
          "metaData" : ""
        }
      ]
    },
    {
      "id" : 27,
      "src" : "C:\\Users\\bakers.INTRA\\Desktop\\Video Tutorials\\PKH\\part3showrun.JPG",
      "rect" : [0, 0, 663, 206],
      "lastMod" : "20241104T020707",
      "sourceTracks" : [
        {
          "range" : [0, 1],
          "type" : 1,
          "editRate" : 10000000,
          "trackRect" : [0, 0, 663, 206],
          "sampleRate" : 0,
          "bitDepth" : 24,
          "numChannels" : 0,
          "metaData" : ""
        }
      ]
    },
    {
      "id" : 28,
      "src" : "C:\\Users\\bakers.INTRA\\Desktop\\Video Tutorials\\PKH\\part3portsecurityaging.JPG",
      "rect" : [0, 0, 664, 179],
      "lastMod" : "20241104T022334",
      "sourceTracks" : [
        {
          "range" : [0, 1],
          "type" : 1,
          "editRate" : 10000000,
          "trackRect" : [0, 0, 664, 179],
          "sampleRate" : 0,
          "bitDepth" : 24,
          "numChannels" : 0,
          "metaData" : ""
        }
      ]
    },
    {
      "id" : 29,
      "src" : "C:\\Users\\bakers.INTRA\\Desktop\\Video Tutorials\\PKH\\part3portsecurityviolation.JPG",
      "rect" : [0, 0, 669, 171],
      "lastMod" : "20241104T023648",
      "sourceTracks" : [
        {
          "range" : [0, 1],
          "type" : 1,
          "editRate" : 10000000,
          "trackRect" : [0, 0, 669, 171],
          "sampleRate" : 0,
          "bitDepth" : 24,
          "numChannels" : 0,
          "metaData" : ""
        }
      ]
    },
    {
      "id" : 30,
      "src" : "C:\\Users\\bakers.INTRA\\Documents\\Camtasia Studio\\Rec 11-03-24 18.trec",
      "rect" : [0, 0, 1920, 1080],
      "lastMod" : "20241104T025608",
      "sourceTracks" : [
        {
          "range" : [0, 4916],
          "type" : 0,
          "editRate" : 30,
          "trackRect" : [0, 0, 1920, 1080],
          "sampleRate" : 27,
          "bitDepth" : 0,
          "numChannels" : 0,
          "metaData" : "Rec 11-03-24 18.trec;"
        },
        {
          "range" : [0, 7212032],
          "type" : 2,
          "editRate" : 44100,
          "trackRect" : [0, 0, 0, 0],
          "sampleRate" : 44100,
          "bitDepth" : 16,
          "numChannels" : 2,
          "metaData" : ""
        }
      ]
    },
    {
      "id" : 31,
      "src" : "C:\\Users\\bakers.INTRA\\Desktop\\Video Tutorials\\PKH\\part3showportsecsecure.JPG",
      "rect" : [0, 0, 666, 185],
      "lastMod" : "20241104T025933",
      "sourceTracks" : [
        {
          "range" : [0, 1],
          "type" : 1,
          "editRate" : 10000000,
          "trackRect" : [0, 0, 666, 185],
          "sampleRate" : 0,
          "bitDepth" : 24,
          "numChannels" : 0,
          "metaData" : ""
        }
      ]
    },
    {
      "id" : 32,
      "src" : "C:\\Users\\bakers.INTRA\\Desktop\\Video Tutorials\\PKH\\part3showportseccounters.JPG",
      "rect" : [0, 0, 672, 435],
      "lastMod" : "20241104T025901",
      "sourceTracks" : [
        {
          "range" : [0, 1],
          "type" : 1,
          "editRate" : 10000000,
          "trackRect" : [0, 0, 672, 435],
          "sampleRate" : 0,
          "bitDepth" : 24,
          "numChannels" : 0,
          "metaData" : ""
        }
      ]
    },
    {
      "id" : 33,
      "src" : "C:\\Users\\bakers.INTRA\\Desktop\\Video Tutorials\\PKH\\part3showportsecint.JPG",
      "rect" : [0, 0, 666, 396],
      "lastMod" : "20241104T025830",
      "sourceTracks" : [
        {
          "range" : [0, 1],
          "type" : 1,
          "editRate" : 10000000,
          "trackRect" : [0, 0, 666, 396],
          "sampleRate" : 0,
          "bitDepth" : 24,
          "numChannels" : 0,
          "metaData" : ""
        }
      ]
    },
    {
      "id" : 34,
      "src" : "C:\\Users\\bakers.INTRA\\Desktop\\Video Tutorials\\PKH\\part3showportsecstaticoutput.JPG",
      "rect" : [0, 0, 670, 223],
      "lastMod" : "20241104T030417",
      "sourceTracks" : [
        {
          "range" : [0, 1],
          "type" : 1,
          "editRate" : 10000000,
          "trackRect" : [0, 0, 670, 223],
          "sampleRate" : 0,
          "bitDepth" : 24,
          "numChannels" : 0,
          "metaData" : ""
        }
      ]
    },
    {
      "id" : 35,
      "src" : "C:\\Users\\bakers.INTRA\\Documents\\Camtasia Studio\\Rec 11-03-24 19.trec",
      "rect" : [0, 0, 1920, 1080],
      "lastMod" : "20241104T030825",
      "sourceTracks" : [
        {
          "range" : [0, 846],
          "type" : 0,
          "editRate" : 30,
          "trackRect" : [0, 0, 1920, 1080],
          "sampleRate" : 27,
          "bitDepth" : 0,
          "numChannels" : 0,
          "metaData" : "Rec 11-03-24 19.trec;"
        },
        {
          "range" : [0, 1235968],
          "type" : 2,
          "editRate" : 44100,
          "trackRect" : [0, 0, 0, 0],
          "sampleRate" : 44100,
          "bitDepth" : 16,
          "numChannels" : 2,
          "metaData" : ""
        }
      ]
    },
    {
      "id" : 36,
      "src" : "C:\\Users\\bakers.INTRA\\Documents\\Camtasia Studio\\Rec 11-04-24 2.trec",
      "rect" : [0, 0, 1920, 1080],
      "lastMod" : "20241104T133214",
      "sourceTracks" : [
        {
          "range" : [0, 7266],
          "type" : 0,
          "editRate" : 30,
          "trackRect" : [0, 0, 1920, 1080],
          "sampleRate" : 27,
          "bitDepth" : 0,
          "numChannels" : 0,
          "metaData" : "Rec 11-04-24 2.trec;"
        },
        {
          "range" : [0, 10674176],
          "type" : 2,
          "editRate" : 44100,
          "trackRect" : [0, 0, 0, 0],
          "sampleRate" : 44100,
          "bitDepth" : 16,
          "numChannels" : 2,
          "metaData" : ""
        }
      ]
    },
    {
      "id" : 37,
      "src" : "C:\\Users\\bakers.INTRA\\Documents\\Camtasia Studio\\Rec 11-04-24 3.trec",
      "rect" : [0, 0, 1920, 1080],
      "lastMod" : "20241104T135019",
      "sourceTracks" : [
        {
          "range" : [0, 485],
          "type" : 0,
          "editRate" : 30,
          "trackRect" : [0, 0, 1920, 1080],
          "sampleRate" : 28,
          "bitDepth" : 0,
          "numChannels" : 0,
          "metaData" : "Rec 11-04-24 3.trec;"
        },
        {
          "range" : [0, 707584],
          "type" : 2,
          "editRate" : 44100,
          "trackRect" : [0, 0, 0, 0],
          "sampleRate" : 44100,
          "bitDepth" : 16,
          "numChannels" : 2,
          "metaData" : ""
        }
      ]
    }
  ],
  "timeline" : {
    "id" : 38,
    "sceneTrack" : {
      "scenes" : [
        {
          "duration" : 1278.33333333333,
          "title" : "",
          "type" : "",
          "csml" : {
            "tracks" : [
              {
                "trackIndex" : 0,
                "medias" : [
                  {
                    "id" : 39,
                    "_type" : "IMFile",
                    "src" : 1,
                    "trackNumber" : 0,
                    "trimStartSum" : 0,
                    "attributes" : {
                      "ident" : "ECU_logo with room for text"
                    },
                    "parameters" : {
                      "translation0" : 6.02540239924565e-12,
                      "translation1" : -2.50253151534707e-11,
                      "scale0" : 1.5561670818629,
                      "scale1" : 1.5561670818629
                    },
                    "effects" : [

                    ],
                    "start" : 0,
                    "duration" : 184,
                    "mediaStart" : 0,
                    "mediaDuration" : 1,
                    "scalar" : 1,
                    "metadata" : {
                      "WinSubProjectDisplayName" : "",
                      "clipSpeedAttribute" : false,
                      "default-scale0" : 1.0,
                      "default-scale1" : 1.0,
                      "default-translation0" : -0.5,
                      "default-translation1" : 0.0
                    },
                    "animationTracks" : {

                    }
                  },
                  {
                    "id" : 40,
                    "_type" : "ScreenVMFile",
                    "src" : 3,
                    "trackNumber" : 0,
                    "attributes" : {
                      "ident" : "Rec 11-03-24 2"
                    },
                    "parameters" : {
                      "cursorScale" : {
                        "type" : "double",
                        "defaultValue" : 1.0,
                        "interp" : "linr"
                      },
                      "cursorOpacity" : {
                        "type" : "double",
                        "defaultValue" : 1.0,
                        "interp" : "linr"
                      }
                    },
                    "effects" : [

                    ],
                    "start" : 184,
                    "duration" : 1183,
                    "mediaStart" : 303,
                    "mediaDuration" : "1183/4",
                    "scalar" : 4,
                    "metadata" : {
                      "AutoAppliedSmartFocus" : "False",
                      "WinSubProjectDisplayName" : "",
                      "clipSpeedAttribute" : true,
                      "default-scale0" : 1.0,
                      "default-scale1" : 1.0
                    },
                    "animationTracks" : {

                    }
                  },
                  {
                    "id" : 41,
                    "_type" : "ScreenVMFile",
                    "src" : 3,
                    "trackNumber" : 0,
                    "attributes" : {
                      "ident" : "Rec 11-03-24 2"
                    },
                    "parameters" : {
                      "cursorScale" : {
                        "type" : "double",
                        "defaultValue" : 1.0,
                        "interp" : "linr"
                      },
                      "cursorOpacity" : {
                        "type" : "double",
                        "defaultValue" : 1.0,
                        "interp" : "linr"
                      }
                    },
                    "effects" : [

                    ],
                    "start" : 1367,
                    "duration" : 1046,
                    "mediaStart" : "1219/2",
                    "mediaDuration" : "523/2",
                    "scalar" : 4,
                    "metadata" : {
                      "AutoAppliedSmartFocus" : "False",
                      "WinSubProjectDisplayName" : "",
                      "clipSpeedAttribute" : true,
                      "default-scale0" : 1.0,
                      "default-scale1" : 1.0
                    },
                    "animationTracks" : {

                    }
                  },
                  {
                    "id" : 42,
                    "_type" : "ScreenVMFile",
                    "src" : 3,
                    "trackNumber" : 0,
                    "attributes" : {
                      "ident" : "Rec 11-03-24 2"
                    },
                    "parameters" : {
                      "cursorScale" : {
                        "type" : "double",
                        "defaultValue" : 1.0,
                        "interp" : "linr"
                      },
                      "cursorOpacity" : {
                        "type" : "double",
                        "defaultValue" : 1.0,
                        "interp" : "linr"
                      }
                    },
                    "effects" : [

                    ],
                    "start" : 4883,
                    "duration" : 4810,
                    "mediaStart" : 1072,
                    "mediaDuration" : 4810,
                    "scalar" : 1,
                    "metadata" : {
                      "AutoAppliedSmartFocus" : "False",
                      "WinSubProjectDisplayName" : "",
                      "clipSpeedAttribute" : false,
                      "default-translation0" : 0.0,
                      "default-translation1" : 0.0
                    },
                    "animationTracks" : {

                    }
                  },
                  {
                    "id" : 43,
                    "_type" : "ScreenVMFile",
                    "src" : 11,
                    "trackNumber" : 0,
                    "attributes" : {
                      "ident" : "Rec 11-03-24 11"
                    },
                    "parameters" : {
                      "translation0" : {
                        "type" : "double",
                        "defaultValue" : 0.0,
                        "interp" : "eioe",
                        "keyframes" : [
                          {
                            "time" : -20,
                            "value" : 95.8800993353397,
                            "duration" : 30
                          }
                        ]
                      },
                      "translation1" : {
                        "type" : "double",
                        "defaultValue" : 0.0,
                        "interp" : "eioe",
                        "keyframes" : [
                          {
                            "time" : -20,
                            "value" : -25.0595710314324,
                            "duration" : 30
                          }
                        ]
                      },
                      "scale0" : {
                        "type" : "double",
                        "defaultValue" : 1.0,
                        "interp" : "eioe",
                        "keyframes" : [
                          {
                            "time" : -20,
                            "value" : 1.1452728104359,
                            "duration" : 30
                          }
                        ]
                      },
                      "scale1" : {
                        "type" : "double",
                        "defaultValue" : 1.0,
                        "interp" : "eioe",
                        "keyframes" : [
                          {
                            "time" : -20,
                            "value" : 1.14527293418708,
                            "duration" : 30
                          }
                        ]
                      },
                      "cursorScale" : {
                        "type" : "double",
                        "defaultValue" : 1.0,
                        "interp" : "linr"
                      },
                      "cursorOpacity" : {
                        "type" : "double",
                        "defaultValue" : 1.0,
                        "interp" : "linr"
                      }
                    },
                    "effects" : [

                    ],
                    "start" : 9693,
                    "duration" : 195,
                    "mediaStart" : 0,
                    "mediaDuration" : 195,
                    "scalar" : 1,
                    "metadata" : {
                      "AutoAppliedSmartFocus" : "False",
                      "WinSubProjectDisplayName" : "",
                      "clipSpeedAttribute" : false
                    },
                    "animationTracks" : {
                      "visual" : [
                        {
                          "range" : [ -20, 30]
                        }
                      ]
                    }
                  },
                  {
                    "id" : 44,
                    "_type" : "ScreenVMFile",
                    "src" : 11,
                    "trackNumber" : 0,
                    "attributes" : {
                      "ident" : "Rec 11-03-24 11"
                    },
                    "parameters" : {
                      "translation0" : {
                        "type" : "double",
                        "defaultValue" : 0.0,
                        "interp" : "eioe",
                        "keyframes" : [
                          {
                            "time" : -20,
                            "value" : 95.8800993353397,
                            "duration" : 30
                          },
                          {
                            "time" : 271,
                            "value" : -988.528862247573,
                            "duration" : 195
                          },
                          {
                            "time" : 1692,
                            "value" : 1132.13737417678,
                            "duration" : 30
                          }
                        ]
                      },
                      "translation1" : {
                        "type" : "double",
                        "defaultValue" : 0.0,
                        "interp" : "eioe",
                        "keyframes" : [
                          {
                            "time" : -20,
                            "value" : -25.0595710314324,
                            "duration" : 30
                          },
                          {
                            "time" : 271,
                            "value" : 152.947381334105,
                            "duration" : 195
                          },
                          {
                            "time" : 1692,
                            "value" : 12.9033769834181,
                            "duration" : 30
                          }
                        ]
                      },
                      "scale0" : {
                        "type" : "double",
                        "defaultValue" : 1.0,
                        "interp" : "eioe",
                        "keyframes" : [
                          {
                            "time" : -20,
                            "value" : 1.1452728104359,
                            "duration" : 30
                          },
                          {
                            "time" : 271,
                            "value" : 2.62869099898792,
                            "duration" : 195
                          },
                          {
                            "time" : 1692,
                            "value" : 2.62869104542687,
                            "duration" : 30
                          }
                        ]
                      },
                      "scale1" : {
                        "type" : "double",
                        "defaultValue" : 1.0,
                        "interp" : "eioe",
                        "keyframes" : [
                          {
                            "time" : -20,
                            "value" : 1.14527293418708,
                            "duration" : 30
                          },
                          {
                            "time" : 271,
                            "value" : 2.6286919435944,
                            "duration" : 195
                          }
                        ]
                      },
                      "cursorScale" : {
                        "type" : "double",
                        "defaultValue" : 1.0,
                        "interp" : "linr"
                      },
                      "cursorOpacity" : {
                        "type" : "double",
                        "defaultValue" : 1.0,
                        "interp" : "linr"
                      }
                    },
                    "effects" : [

                    ],
                    "start" : 9888,
                    "duration" : 4021,
                    "mediaStart" : 195,
                    "mediaDuration" : 4021,
                    "scalar" : 1,
                    "metadata" : {
                      "AutoAppliedSmartFocus" : "False",
                      "WinSubProjectDisplayName" : "",
                      "clipSpeedAttribute" : false,
                      "default-scale0" : 1.1452728104359,
                      "default-scale1" : 1.14527293418708,
                      "default-translation0" : 95.8800993353397,
                      "default-translation1" : -25.0595710314324
                    },
                    "animationTracks" : {
                      "visual" : [
                        {
                          "range" : [ -20, 30]
                        },
                        {
                          "range" : [ 271, 195]
                        },
                        {
                          "range" : [ 1692, 30]
                        }
                      ]
                    }
                  },
                  {
                    "id" : 45,
                    "_type" : "ScreenVMFile",
                    "src" : 11,
                    "trackNumber" : 0,
                    "attributes" : {
                      "ident" : "Rec 11-03-24 11"
                    },
                    "parameters" : {
                      "translation0" : {
                        "type" : "double",
                        "defaultValue" : 0.0,
                        "interp" : "eioe",
                        "keyframes" : [
                          {
                            "time" : -20,
                            "value" : 95.8800993353397,
                            "duration" : 30
                          }
                        ]
                      },
                      "translation1" : {
                        "type" : "double",
                        "defaultValue" : 0.0,
                        "interp" : "eioe",
                        "keyframes" : [
                          {
                            "time" : -20,
                            "value" : -25.0595710314324,
                            "duration" : 30
                          }
                        ]
                      },
                      "scale0" : {
                        "type" : "double",
                        "defaultValue" : 1.0,
                        "interp" : "eioe",
                        "keyframes" : [
                          {
                            "time" : -20,
                            "value" : 1.1452728104359,
                            "duration" : 30
                          }
                        ]
                      },
                      "scale1" : {
                        "type" : "double",
                        "defaultValue" : 1.0,
                        "interp" : "eioe",
                        "keyframes" : [
                          {
                            "time" : -20,
                            "value" : 1.14527293418708,
                            "duration" : 30
                          }
                        ]
                      },
                      "cursorScale" : {
                        "type" : "double",
                        "defaultValue" : 1.0,
                        "interp" : "linr"
                      },
                      "cursorOpacity" : {
                        "type" : "double",
                        "defaultValue" : 1.0,
                        "interp" : "linr"
                      }
                    },
                    "effects" : [

                    ],
                    "start" : 13909,
                    "duration" : 3746,
                    "mediaStart" : 480,
                    "mediaDuration" : 3746,
                    "scalar" : 1,
                    "metadata" : {
                      "AutoAppliedSmartFocus" : "False",
                      "WinSubProjectDisplayName" : "",
                      "clipSpeedAttribute" : false,
                      "default-scale0" : 1.1452728104359,
                      "default-scale1" : 1.14527293418708,
                      "default-translation0" : 95.8800993353397,
                      "default-translation1" : -25.0595710314324
                    },
                    "animationTracks" : {
                      "visual" : [
                        {
                          "range" : [ -20, 30]
                        }
                      ]
                    }
                  },
                  {
                    "id" : 46,
                    "_type" : "IMFile",
                    "src" : 18,
                    "trackNumber" : 0,
                    "trimStartSum" : 0,
                    "attributes" : {
                      "ident" : "part3wholescreen"
                    },
                    "parameters" : {
                      "translation0" : {
                        "type" : "double",
                        "defaultValue" : 1.36619948180073e-10,
                        "interp" : "eioe"
                      },
                      "translation1" : {
                        "type" : "double",
                        "defaultValue" : -5.5472071380791e-11,
                        "interp" : "eioe"
                      },
                      "scale0" : {
                        "type" : "double",
                        "defaultValue" : 1.48561981639251,
                        "interp" : "eioe"
                      },
                      "scale1" : {
                        "type" : "double",
                        "defaultValue" : 1.39974858579541,
                        "interp" : "eioe"
                      }
                    },
                    "effects" : [

                    ],
                    "start" : 17655,
                    "duration" : 13665,
                    "mediaStart" : 0,
                    "mediaDuration" : 1,
                    "scalar" : 1,
                    "metadata" : {
                      "WinSubProjectDisplayName" : "",
                      "clipSpeedAttribute" : false,
                      "default-scale0" : 1.0,
                      "default-scale1" : 1.0,
                      "default-translation0" : -0.5,
                      "default-translation1" : -0.5
                    },
                    "animationTracks" : {

                    }
                  },
                  {
                    "id" : 47,
                    "_type" : "ScreenVMFile",
                    "src" : 36,
                    "trackNumber" : 0,
                    "attributes" : {
                      "ident" : "Rec 11-04-24 2"
                    },
                    "parameters" : {
                      "cursorScale" : {
                        "type" : "double",
                        "defaultValue" : 1.0,
                        "interp" : "linr"
                      },
                      "cursorOpacity" : {
                        "type" : "double",
                        "defaultValue" : 1.0,
                        "interp" : "linr"
                      }
                    },
                    "effects" : [

                    ],
                    "start" : 31363,
                    "duration" : 2680,
                    "mediaStart" : 0,
                    "mediaDuration" : 2680,
                    "scalar" : 1,
                    "metadata" : {
                      "AutoAppliedSmartFocus" : "False",
                      "WinSubProjectDisplayName" : "",
                      "clipSpeedAttribute" : false
                    },
                    "animationTracks" : {

                    }
                  },
                  {
                    "id" : 48,
                    "_type" : "ScreenVMFile",
                    "src" : 36,
                    "trackNumber" : 0,
                    "attributes" : {
                      "ident" : "Rec 11-04-24 2"
                    },
                    "parameters" : {
                      "cursorScale" : {
                        "type" : "double",
                        "defaultValue" : 1.0,
                        "interp" : "linr"
                      },
                      "cursorOpacity" : {
                        "type" : "double",
                        "defaultValue" : 1.0,
                        "interp" : "linr"
                      }
                    },
                    "effects" : [

                    ],
                    "start" : 34043,
                    "duration" : 3631,
                    "mediaStart" : 2987,
                    "mediaDuration" : 3631,
                    "scalar" : 1,
                    "metadata" : {
                      "AutoAppliedSmartFocus" : "False",
                      "WinSubProjectDisplayName" : "",
                      "clipSpeedAttribute" : false
                    },
                    "animationTracks" : {

                    }
                  },
                  {
                    "id" : 49,
                    "_type" : "ScreenVMFile",
                    "src" : 36,
                    "trackNumber" : 0,
                    "attributes" : {
                      "ident" : "Rec 11-04-24 2"
                    },
                    "parameters" : {
                      "cursorScale" : {
                        "type" : "double",
                        "defaultValue" : 1.0,
                        "interp" : "linr"
                      },
                      "cursorOpacity" : {
                        "type" : "double",
                        "defaultValue" : 1.0,
                        "interp" : "linr"
                      }
                    },
                    "effects" : [

                    ],
                    "start" : 37674,
                    "duration" : 98,
                    "mediaStart" : 6651,
                    "mediaDuration" : 98,
                    "scalar" : 1,
                    "metadata" : {
                      "AutoAppliedSmartFocus" : "False",
                      "WinSubProjectDisplayName" : "",
                      "clipSpeedAttribute" : false
                    },
                    "animationTracks" : {

                    }
                  },
                  {
                    "id" : 50,
                    "_type" : "ScreenVMFile",
                    "src" : 36,
                    "trackNumber" : 0,
                    "attributes" : {
                      "ident" : "Rec 11-04-24 2"
                    },
                    "parameters" : {
                      "cursorScale" : {
                        "type" : "double",
                        "defaultValue" : 1.0,
                        "interp" : "linr"
                      },
                      "cursorOpacity" : {
                        "type" : "double",
                        "defaultValue" : 1.0,
                        "interp" : "linr"
                      }
                    },
                    "effects" : [

                    ],
                    "start" : 37772,
                    "duration" : 170,
                    "mediaStart" : 6749,
                    "mediaDuration" : 170,
                    "scalar" : 1,
                    "metadata" : {
                      "AutoAppliedSmartFocus" : "False",
                      "WinSubProjectDisplayName" : "",
                      "clipSpeedAttribute" : false
                    },
                    "animationTracks" : {

                    }
                  },
                  {
                    "id" : 51,
                    "_type" : "ScreenVMFile",
                    "src" : 36,
                    "trackNumber" : 0,
                    "attributes" : {
                      "ident" : "Rec 11-04-24 2"
                    },
                    "parameters" : {
                      "cursorScale" : {
                        "type" : "double",
                        "defaultValue" : 1.0,
                        "interp" : "linr"
                      },
                      "cursorOpacity" : {
                        "type" : "double",
                        "defaultValue" : 1.0,
                        "interp" : "linr"
                      }
                    },
                    "effects" : [

                    ],
                    "start" : 37942,
                    "duration" : 46,
                    "mediaStart" : 6945,
                    "mediaDuration" : 46,
                    "scalar" : 1,
                    "metadata" : {
                      "AutoAppliedSmartFocus" : "False",
                      "WinSubProjectDisplayName" : "",
                      "clipSpeedAttribute" : false
                    },
                    "animationTracks" : {

                    }
                  },
                  {
                    "id" : 52,
                    "_type" : "ScreenVMFile",
                    "src" : 36,
                    "trackNumber" : 0,
                    "attributes" : {
                      "ident" : "Rec 11-04-24 2"
                    },
                    "parameters" : {
                      "cursorScale" : {
                        "type" : "double",
                        "defaultValue" : 1.0,
                        "interp" : "linr"
                      },
                      "cursorOpacity" : {
                        "type" : "double",
                        "defaultValue" : 1.0,
                        "interp" : "linr"
                      }
                    },
                    "effects" : [

                    ],
                    "start" : 37988,
                    "duration" : 85,
                    "mediaStart" : 7016,
                    "mediaDuration" : 85,
                    "scalar" : 1,
                    "metadata" : {
                      "AutoAppliedSmartFocus" : "False",
                      "WinSubProjectDisplayName" : "",
                      "clipSpeedAttribute" : false
                    },
                    "animationTracks" : {

                    }
                  },
                  {
                    "id" : 53,
                    "_type" : "IMFile",
                    "src" : 1,
                    "trackNumber" : 0,
                    "trimStartSum" : 0,
                    "attributes" : {
                      "ident" : "ECU_logo with room for text"
                    },
                    "parameters" : {
                      "translation0" : 6.02540239924565e-12,
                      "translation1" : -2.50253151534707e-11,
                      "scale0" : 1.5561670818629,
                      "scale1" : 1.5561670818629
                    },
                    "effects" : [

                    ],
                    "start" : 38073,
                    "duration" : 277,
                    "mediaStart" : 0,
                    "mediaDuration" : 1,
                    "scalar" : 1,
                    "metadata" : {
                      "WinSubProjectDisplayName" : "",
                      "clipSpeedAttribute" : false,
                      "default-scale0" : 1.0,
                      "default-scale1" : 1.0,
                      "default-translation0" : -0.5,
                      "default-translation1" : 0.0
                    },
                    "animationTracks" : {

                    }
                  }
                ],
                "transitions" : [
                  {
                    "name" : "Fade",
                    "duration" : 13,
                    "trivial" : false,
                    "useAudioPreRoll" : true,
                    "useVisualPreRoll" : true,
                    "rightMedia" : 39
                  },
                  {
                    "name" : "Fade",
                    "duration" : 15,
                    "trivial" : false,
                    "useAudioPreRoll" : true,
                    "useVisualPreRoll" : true,
                    "leftMedia" : 39
                  },
                  {
                    "name" : "Fade",
                    "duration" : 12,
                    "trivial" : false,
                    "useAudioPreRoll" : true,
                    "useVisualPreRoll" : true,
                    "rightMedia" : 53
                  }
                ]
              },
              {
                "trackIndex" : 1,
                "medias" : [
                  {
                    "id" : 54,
                    "_type" : "Callout",
                    "def" : {
                      "kind" : "remix",
                      "shape" : "text-rectangle",
                      "style" : "basic",
                      "fill-color-blue" : 1.0,
                      "fill-color-green" : 1.0,
                      "fill-color-opacity" : 1.0,
                      "fill-color-red" : 1.0,
                      "height" : 319.23076923075,
                      "stroke-color-blue" : 0.56078431372549,
                      "stroke-color-green" : 0.686274509803922,
                      "stroke-color-opacity" : 1.0,
                      "stroke-color-red" : 0.0196078431372549,
                      "stroke-width" : 2.0,
                      "tail-x" : 1.2978773611394e-10,
                      "tail-y" : 3.07692307706641,
                      "width" : 584.146341463441,
                      "word-wrap" : 1.0,
                      "fill-style" : "solid",
                      "horizontal-alignment" : "center",
                      "stroke-style" : "solid",
                      "text" : "Module 4 LAN Security Concepts & Configuration\r\rPart 3 CAM Table MAC Address Overflow Mitigation",
                      "vertical-alignment" : "center",
                      "font" : {
                        "color-blue" : 0.266666666666667,
                        "color-green" : 0.231372549019608,
                        "color-opacity" : 1.0,
                        "color-red" : 0.184313725490196,
                        "size" : 64.0,
                        "tracking" : 0.0,
                        "name" : "Montserrat",
                        "weight" : "Regular"
                      },
                      "textAttributes" : {
                        "type" : "textAttributeList",
                        "keyframes" : [
                          {
                            "time" : 0,
                            "value" : [{"name":"fgColor","rangeEnd":96,"rangeStart":0,"value":"(47,59,68,255)","valueType":"color"},{"name":"strikethrough","rangeEnd":96,"rangeStart":0,"value":0,"valueType":"int"},{"name":"fontSize","rangeEnd":47,"rangeStart":46,"value":54,"valueType":"double"},{"name":"fontItalic","rangeEnd":96,"rangeStart":0,"value":0,"valueType":"int"},{"name":"fontName","rangeEnd":96,"rangeStart":0,"value":"Montserrat","valueType":"string"},{"name":"underline","rangeEnd":96,"rangeStart":0,"value":0,"valueType":"int"},{"name":"fontWeight","rangeEnd":96,"rangeStart":0,"value":400,"valueType":"int"},{"name":"fontSize","rangeEnd":46,"rangeStart":0,"value":36,"valueType":"double"},{"name":"fontSize","rangeEnd":96,"rangeStart":47,"value":40,"valueType":"double"}],
                            "duration" : 0
                          }
                        ]
                      }
                    },
                    "attributes" : {
                      "autoRotateText" : true
                    },
                    "parameters" : {
                      "translation0" : -6.3110405790212e-11,
                      "translation1" : -281.302143627132,
                      "toc" : {
                        "type" : "string",
                        "keyframes" : [
                          {
                            "time" : 62,
                            "value" : "Marker 1",
                            "duration" : 0,
                            "metadata" : {
                              "Checked" : "True",
                              "IndentLevel" : "0",
                              "markerIdentifier" : "C44F55B0-7C3B-4509-9B18-E4DC36CA2C3D"
                            }
                          }
                        ]
                      }
                    },
                    "effects" : [
                        {
                          "effectName" : "DropShadow",
                          "category" : "categoryVisualEffects",
                          "parameters" : {
                            "angle" : 5.49778714378214,
                            "blur" : 10.0,
                            "color-alpha" : 1.0,
                            "color-blue" : 0.1216,
                            "color-green" : 0.1216,
                            "color-red" : 0.1216,
                            "enabled" : 1,
                            "offset" : 10.0,
                            "opacity" : 0.4
                          }
                        }
                    ],
                    "start" : 0,
                    "duration" : 184,
                    "mediaStart" : 0,
                    "mediaDuration" : 184,
                    "scalar" : 1,
                    "metadata" : {
                      "WinSubProjectDisplayName" : "",
                      "clipSpeedAttribute" : false,
                      "default-HAlign" : "center",
                      "default-VAlign" : "center",
                      "default-text-attributes" : "[{\"name\":\"strikethrough\",\"rangeEnd\":33,\"rangeStart\":0,\"value\":0,\"valueType\":\"int\"},{\"name\":\"fgColor\",\"rangeEnd\":33,\"rangeStart\":0,\"value\":\"(47,59,68,255)\",\"valueType\":\"color\"},{\"name\":\"underline\",\"rangeEnd\":33,\"rangeStart\":0,\"value\":0,\"valueType\":\"int\"},{\"name\":\"fontSize\",\"rangeEnd\":33,\"rangeStart\":0,\"value\":64,\"valueType\":\"double\"},{\"name\":\"fontItalic\",\"rangeEnd\":33,\"rangeStart\":0,\"value\":0,\"valueType\":\"int\"},{\"name\":\"fontWeight\",\"rangeEnd\":33,\"rangeStart\":0,\"value\":400,\"valueType\":\"int\"},{\"name\":\"fontName\",\"rangeEnd\":33,\"rangeStart\":0,\"value\":\"Montserrat\",\"valueType\":\"string\"}]",
                      "default-translation0" : 0.0,
                      "default-translation1" : 0.0
                    },
                    "animationTracks" : {

                    }
                  },
                  {
                    "id" : 55,
                    "_type" : "VMFile",
                    "src" : 2,
                    "trackNumber" : 1,
                    "attributes" : {
                      "ident" : "Rec 11-03-24"
                    },
                    "parameters" : {
                      "translation0" : {
                        "type" : "double",
                        "defaultValue" : 443.821219293046,
                        "interp" : "eioe"
                      },
                      "translation1" : {
                        "type" : "double",
                        "defaultValue" : -152.86591231778,
                        "interp" : "eioe"
                      },
                      "scale0" : {
                        "type" : "double",
                        "defaultValue" : 1.61305869158593,
                        "interp" : "eioe"
                      },
                      "scale1" : {
                        "type" : "double",
                        "defaultValue" : 1.61305869158593,
                        "interp" : "eioe"
                      }
                    },
                    "effects" : [
                        {
                          "effectName" : "ChromaKey",
                          "category" : "categoryVisualEffects",
                          "parameters" : {
                            "clrCompensation" : {
                              "type" : "double",
                              "defaultValue" : 0.0,
                              "interp" : "linr",
                              "uiHints" : {
                                "userInterfaceType" : 0,
                                "unitType" : 0
                              }
                            },
                            "color-alpha" : {
                              "type" : "double",
                              "defaultValue" : 1.0,
                              "interp" : "linr",
                              "uiHints" : {
                                "userInterfaceType" : 0,
                                "unitType" : 0
                              }
                            },
                            "color-blue" : {
                              "type" : "double",
                              "defaultValue" : 0.352941176470588,
                              "interp" : "linr",
                              "uiHints" : {
                                "userInterfaceType" : 0,
                                "unitType" : 0
                              }
                            },
                            "color-green" : {
                              "type" : "double",
                              "defaultValue" : 0.258823529411765,
                              "interp" : "linr",
                              "uiHints" : {
                                "userInterfaceType" : 0,
                                "unitType" : 0
                              }
                            },
                            "color-red" : {
                              "type" : "double",
                              "defaultValue" : 0.0549019607843137,
                              "interp" : "linr",
                              "uiHints" : {
                                "userInterfaceType" : 0,
                                "unitType" : 0
                              }
                            },
                            "defringe" : {
                              "type" : "double",
                              "defaultValue" : 0.0,
                              "interp" : "linr",
                              "uiHints" : {
                                "userInterfaceType" : 0,
                                "unitType" : 0
                              }
                            },
                            "enabled" : 1,
                            "invertEffect" : 0.0,
                            "softness" : {
                              "type" : "double",
                              "defaultValue" : 0.1,
                              "interp" : "linr",
                              "uiHints" : {
                                "userInterfaceType" : 0,
                                "unitType" : 0
                              }
                            },
                            "tolerance" : {
                              "type" : "double",
                              "defaultValue" : 0.1,
                              "interp" : "linr",
                              "uiHints" : {
                                "userInterfaceType" : 0,
                                "unitType" : 0
                              }
                            }
                          },
                          "metadata" : {
                            "effectIndex" : "0"
                          }
                        }
                    ],
                    "start" : 184,
                    "duration" : 1183,
                    "mediaStart" : 0,
                    "mediaDuration" : 1183,
                    "scalar" : 1,
                    "metadata" : {
                      "WinSubProjectDisplayName" : "",
                      "clipSpeedAttribute" : false
                    },
                    "animationTracks" : {

                    }
                  },
                  {
                    "id" : 56,
                    "_type" : "VMFile",
                    "src" : 2,
                    "trackNumber" : 1,
                    "attributes" : {
                      "ident" : "Rec 11-03-24"
                    },
                    "parameters" : {
                      "translation0" : {
                        "type" : "double",
                        "defaultValue" : 443.821219293046,
                        "interp" : "eioe"
                      },
                      "translation1" : {
                        "type" : "double",
                        "defaultValue" : -152.86591231778,
                        "interp" : "eioe"
                      },
                      "scale0" : {
                        "type" : "double",
                        "defaultValue" : 1.61305869158593,
                        "interp" : "eioe"
                      },
                      "scale1" : {
                        "type" : "double",
                        "defaultValue" : 1.61305869158593,
                        "interp" : "eioe"
                      }
                    },
                    "effects" : [
                        {
                          "effectName" : "ChromaKey",
                          "category" : "categoryVisualEffects",
                          "parameters" : {
                            "clrCompensation" : {
                              "type" : "double",
                              "defaultValue" : 0.0,
                              "interp" : "linr",
                              "uiHints" : {
                                "userInterfaceType" : 0,
                                "unitType" : 0
                              }
                            },
                            "color-alpha" : {
                              "type" : "double",
                              "defaultValue" : 1.0,
                              "interp" : "linr",
                              "uiHints" : {
                                "userInterfaceType" : 0,
                                "unitType" : 0
                              }
                            },
                            "color-blue" : {
                              "type" : "double",
                              "defaultValue" : 0.352941176470588,
                              "interp" : "linr",
                              "uiHints" : {
                                "userInterfaceType" : 0,
                                "unitType" : 0
                              }
                            },
                            "color-green" : {
                              "type" : "double",
                              "defaultValue" : 0.258823529411765,
                              "interp" : "linr",
                              "uiHints" : {
                                "userInterfaceType" : 0,
                                "unitType" : 0
                              }
                            },
                            "color-red" : {
                              "type" : "double",
                              "defaultValue" : 0.0549019607843137,
                              "interp" : "linr",
                              "uiHints" : {
                                "userInterfaceType" : 0,
                                "unitType" : 0
                              }
                            },
                            "defringe" : {
                              "type" : "double",
                              "defaultValue" : 0.0,
                              "interp" : "linr",
                              "uiHints" : {
                                "userInterfaceType" : 0,
                                "unitType" : 0
                              }
                            },
                            "enabled" : 1,
                            "invertEffect" : 0.0,
                            "softness" : {
                              "type" : "double",
                              "defaultValue" : 0.1,
                              "interp" : "linr",
                              "uiHints" : {
                                "userInterfaceType" : 0,
                                "unitType" : 0
                              }
                            },
                            "tolerance" : {
                              "type" : "double",
                              "defaultValue" : 0.1,
                              "interp" : "linr",
                              "uiHints" : {
                                "userInterfaceType" : 0,
                                "unitType" : 0
                              }
                            }
                          },
                          "metadata" : {
                            "effectIndex" : "0"
                          }
                        }
                    ],
                    "start" : 1367,
                    "duration" : 1046,
                    "mediaStart" : 1226,
                    "mediaDuration" : 1046,
                    "scalar" : 1,
                    "metadata" : {
                      "WinSubProjectDisplayName" : "",
                      "clipSpeedAttribute" : false
                    },
                    "animationTracks" : {

                    }
                  },
                  {
                    "id" : 57,
                    "_type" : "UnifiedMedia",
                    "video" : 
                        {
                          "id" : 58,
                          "_type" : "ScreenVMFile",
                          "src" : 6,
                          "trackNumber" : 0,
                          "attributes" : {
                            "ident" : "Rec 11-03-24 4"
                          },
                          "parameters" : {
                            "translation0" : {
                              "type" : "double",
                              "defaultValue" : 0.0,
                              "interp" : "eioe",
                              "keyframes" : [
                                {
                                  "time" : 0,
                                  "value" : 176.896225706487,
                                  "duration" : 70
                                }
                              ]
                            },
                            "translation1" : {
                              "type" : "double",
                              "defaultValue" : 0.0,
                              "interp" : "eioe",
                              "keyframes" : [
                                {
                                  "time" : 0,
                                  "value" : -0.947658773604328,
                                  "duration" : 70
                                }
                              ]
                            },
                            "scale0" : {
                              "type" : "double",
                              "defaultValue" : 1.0,
                              "interp" : "eioe",
                              "keyframes" : [
                                {
                                  "time" : 0,
                                  "value" : 1.32817065910673,
                                  "duration" : 70
                                }
                              ]
                            },
                            "scale1" : {
                              "type" : "double",
                              "defaultValue" : 1.0,
                              "interp" : "eioe",
                              "keyframes" : [
                                {
                                  "time" : 0,
                                  "value" : 1.3281707914595,
                                  "duration" : 70
                                }
                              ]
                            },
                            "cursorScale" : {
                              "type" : "double",
                              "defaultValue" : 1.0,
                              "interp" : "linr"
                            },
                            "cursorOpacity" : {
                              "type" : "double",
                              "defaultValue" : 1.0,
                              "interp" : "linr"
                            }
                          },
                          "effects" : [

                          ],
                          "start" : 2413,
                          "duration" : 2327,
                          "mediaStart" : 0,
                          "mediaDuration" : 2327,
                          "scalar" : 1,
                          "animationTracks" : {
                            "visual" : [
                              {
                                "range" : [ 0, 70]
                              }
                            ]
                          }
                        },
                    "audio" : 
                        {
                          "id" : 59,
                          "_type" : "AMFile",
                          "src" : 6,
                          "trackNumber" : 1,
                          "attributes" : {
                            "ident" : "",
                            "sampleRate" : 44100,
                            "bitDepth" : 16,
                            "gain" : 1.0,
                            "mixToMono" : false
                          },
                            "channelNumber" : "0,1",
                          "effects" : [

                          ],
                          "start" : 2413,
                          "duration" : 2327,
                          "mediaStart" : 0,
                          "mediaDuration" : 2327,
                          "scalar" : 1,
                          "animationTracks" : {

                          }
                        }
,
                    "start" : 2413,
                    "duration" : 2327,
                    "mediaStart" : 0,
                    "mediaDuration" : 2911,
                    "scalar" : 1,
                    "metadata" : {
                      "AutoAppliedSmartFocus" : "False",
                      "WinSubProjectDisplayName" : "",
                      "clipSpeedAttribute" : false,
                      "default-scale0" : 1.0,
                      "default-scale1" : 1.0,
                      "default-translation0" : 0.0,
                      "default-translation1" : 0.0
                    }
                  },
                  {
                    "id" : 60,
                    "_type" : "UnifiedMedia",
                    "video" : 
                        {
                          "id" : 61,
                          "_type" : "ScreenVMFile",
                          "src" : 7,
                          "trackNumber" : 0,
                          "attributes" : {
                            "ident" : "Rec 11-03-24 5"
                          },
                          "parameters" : {
                            "cursorScale" : {
                              "type" : "double",
                              "defaultValue" : 1.0,
                              "interp" : "linr"
                            },
                            "cursorOpacity" : {
                              "type" : "double",
                              "defaultValue" : 1.0,
                              "interp" : "linr"
                            }
                          },
                          "effects" : [

                          ],
                          "start" : 4740,
                          "duration" : 417,
                          "mediaStart" : 259,
                          "mediaDuration" : 417,
                          "scalar" : 1,
                          "animationTracks" : {

                          }
                        },
                    "audio" : 
                        {
                          "id" : 62,
                          "_type" : "AMFile",
                          "src" : 7,
                          "trackNumber" : 1,
                          "attributes" : {
                            "ident" : "",
                            "sampleRate" : 44100,
                            "bitDepth" : 16,
                            "gain" : 1.0,
                            "mixToMono" : false
                          },
                            "channelNumber" : "0,1",
                          "effects" : [

                          ],
                          "start" : 4740,
                          "duration" : 417,
                          "mediaStart" : 259,
                          "mediaDuration" : 417,
                          "scalar" : 1,
                          "animationTracks" : {

                          }
                        }
,
                    "start" : 4740,
                    "duration" : 417,
                    "mediaStart" : 0,
                    "mediaDuration" : 3661,
                    "scalar" : 1,
                    "metadata" : {
                      "AutoAppliedSmartFocus" : "False",
                      "WinSubProjectDisplayName" : "",
                      "clipSpeedAttribute" : false
                    }
                  },
                  {
                    "id" : 63,
                    "_type" : "UnifiedMedia",
                    "video" : 
                        {
                          "id" : 64,
                          "_type" : "ScreenVMFile",
                          "src" : 7,
                          "trackNumber" : 0,
                          "attributes" : {
                            "ident" : "Rec 11-03-24 5"
                          },
                          "parameters" : {
                            "translation0" : {
                              "type" : "double",
                              "defaultValue" : 0.0,
                              "interp" : "eioe",
                              "keyframes" : [
                                {
                                  "time" : 1173,
                                  "value" : -155.768361941096,
                                  "duration" : 30
                                },
                                {
                                  "time" : 2003,
                                  "value" : -451.232686580462,
                                  "duration" : 30
                                },
                                {
                                  "time" : 2290,
                                  "value" : 323.3500055981,
                                  "duration" : 30
                                },
                                {
                                  "time" : 2613,
                                  "value" : 222.438648314312,
                                  "duration" : 119
                                }
                              ]
                            },
                            "translation1" : {
                              "type" : "double",
                              "defaultValue" : 0.0,
                              "interp" : "eioe",
                              "keyframes" : [
                                {
                                  "time" : 1173,
                                  "value" : 41.7684986484403,
                                  "duration" : 30
                                },
                                {
                                  "time" : 2003,
                                  "value" : 195.825439703298,
                                  "duration" : 30
                                },
                                {
                                  "time" : 2290,
                                  "value" : 201.696596624155,
                                  "duration" : 30
                                },
                                {
                                  "time" : 2613,
                                  "value" : 56.0068701788338,
                                  "duration" : 119
                                }
                              ]
                            },
                            "scale0" : {
                              "type" : "double",
                              "defaultValue" : 1.0,
                              "interp" : "eioe",
                              "keyframes" : [
                                {
                                  "time" : 1173,
                                  "value" : 1.32044605022118,
                                  "duration" : 30
                                },
                                {
                                  "time" : 2003,
                                  "value" : 1.67011070412545,
                                  "duration" : 30
                                },
                                {
                                  "time" : 2290,
                                  "value" : 1.72018406883735,
                                  "duration" : 30
                                },
                                {
                                  "time" : 2613,
                                  "value" : 1.67011081659761,
                                  "duration" : 119
                                }
                              ]
                            },
                            "scale1" : {
                              "type" : "double",
                              "defaultValue" : 1.0,
                              "interp" : "eioe",
                              "keyframes" : [
                                {
                                  "time" : 1173,
                                  "value" : 1.32044651537695,
                                  "duration" : 30
                                },
                                {
                                  "time" : 2003,
                                  "value" : 1.67011117998598,
                                  "duration" : 30
                                },
                                {
                                  "time" : 2290,
                                  "value" : 1.72018471936145,
                                  "duration" : 30
                                },
                                {
                                  "time" : 2613,
                                  "value" : 1.67011117998598,
                                  "duration" : 119
                                }
                              ]
                            },
                            "cursorScale" : {
                              "type" : "double",
                              "defaultValue" : 1.0,
                              "interp" : "linr"
                            },
                            "cursorOpacity" : {
                              "type" : "double",
                              "defaultValue" : 1.0,
                              "interp" : "linr"
                            }
                          },
                          "effects" : [

                          ],
                          "start" : 5157,
                          "duration" : 1945,
                          "mediaStart" : 787,
                          "mediaDuration" : 1945,
                          "scalar" : 1,
                          "animationTracks" : {
                            "visual" : [
                              {
                                "range" : [ 1173, 30]
                              },
                              {
                                "range" : [ 2003, 30]
                              },
                              {
                                "range" : [ 2290, 30]
                              },
                              {
                                "range" : [ 2613, 119]
                              }
                            ]
                          }
                        },
                    "audio" : 
                        {
                          "id" : 65,
                          "_type" : "AMFile",
                          "src" : 7,
                          "trackNumber" : 1,
                          "attributes" : {
                            "ident" : "",
                            "sampleRate" : 44100,
                            "bitDepth" : 16,
                            "gain" : 1.0,
                            "mixToMono" : false
                          },
                            "channelNumber" : "0,1",
                          "effects" : [

                          ],
                          "start" : 5157,
                          "duration" : 1945,
                          "mediaStart" : 787,
                          "mediaDuration" : 1945,
                          "scalar" : 1,
                          "animationTracks" : {

                          }
                        }
,
                    "start" : 5157,
                    "duration" : 1945,
                    "mediaStart" : 0,
                    "mediaDuration" : 3661,
                    "scalar" : 1,
                    "metadata" : {
                      "AutoAppliedSmartFocus" : "False",
                      "WinSubProjectDisplayName" : "",
                      "clipSpeedAttribute" : false,
                      "default-scale0" : 1.0,
                      "default-scale1" : 1.0,
                      "default-translation0" : 0.0,
                      "default-translation1" : 0.0
                    }
                  },
                  {
                    "id" : 66,
                    "_type" : "UnifiedMedia",
                    "video" : 
                        {
                          "id" : 67,
                          "_type" : "ScreenVMFile",
                          "src" : 7,
                          "trackNumber" : 0,
                          "attributes" : {
                            "ident" : "Rec 11-03-24 5"
                          },
                          "parameters" : {
                            "translation0" : {
                              "type" : "double",
                              "defaultValue" : 0.0,
                              "interp" : "eioe",
                              "keyframes" : [
                                {
                                  "time" : 1173,
                                  "value" : -155.768361941096,
                                  "duration" : 30
                                },
                                {
                                  "time" : 2003,
                                  "value" : -451.232686580462,
                                  "duration" : 30
                                },
                                {
                                  "time" : 2290,
                                  "value" : 323.3500055981,
                                  "duration" : 30
                                },
                                {
                                  "time" : 2613,
                                  "value" : 222.438648314312,
                                  "duration" : 119
                                }
                              ]
                            },
                            "translation1" : {
                              "type" : "double",
                              "defaultValue" : 0.0,
                              "interp" : "eioe",
                              "keyframes" : [
                                {
                                  "time" : 1173,
                                  "value" : 41.7684986484403,
                                  "duration" : 30
                                },
                                {
                                  "time" : 2003,
                                  "value" : 195.825439703298,
                                  "duration" : 30
                                },
                                {
                                  "time" : 2290,
                                  "value" : 201.696596624155,
                                  "duration" : 30
                                },
                                {
                                  "time" : 2613,
                                  "value" : 56.0068701788338,
                                  "duration" : 119
                                }
                              ]
                            },
                            "scale0" : {
                              "type" : "double",
                              "defaultValue" : 1.0,
                              "interp" : "eioe",
                              "keyframes" : [
                                {
                                  "time" : 1173,
                                  "value" : 1.32044605022118,
                                  "duration" : 30
                                },
                                {
                                  "time" : 2003,
                                  "value" : 1.67011070412545,
                                  "duration" : 30
                                },
                                {
                                  "time" : 2290,
                                  "value" : 1.72018406883735,
                                  "duration" : 30
                                },
                                {
                                  "time" : 2613,
                                  "value" : 1.67011081659761,
                                  "duration" : 119
                                }
                              ]
                            },
                            "scale1" : {
                              "type" : "double",
                              "defaultValue" : 1.0,
                              "interp" : "eioe",
                              "keyframes" : [
                                {
                                  "time" : 1173,
                                  "value" : 1.32044651537695,
                                  "duration" : 30
                                },
                                {
                                  "time" : 2003,
                                  "value" : 1.67011117998598,
                                  "duration" : 30
                                },
                                {
                                  "time" : 2290,
                                  "value" : 1.72018471936145,
                                  "duration" : 30
                                },
                                {
                                  "time" : 2613,
                                  "value" : 1.67011117998598,
                                  "duration" : 119
                                }
                              ]
                            },
                            "cursorScale" : {
                              "type" : "double",
                              "defaultValue" : 1.0,
                              "interp" : "linr"
                            },
                            "cursorOpacity" : {
                              "type" : "double",
                              "defaultValue" : 1.0,
                              "interp" : "linr"
                            }
                          },
                          "effects" : [

                          ],
                          "start" : 7102,
                          "duration" : 112,
                          "mediaStart" : 2838,
                          "mediaDuration" : 112,
                          "scalar" : 1,
                          "animationTracks" : {
                            "visual" : [
                              {
                                "range" : [ 1173, 30]
                              },
                              {
                                "range" : [ 2003, 30]
                              },
                              {
                                "range" : [ 2290, 30]
                              },
                              {
                                "range" : [ 2613, 119]
                              }
                            ]
                          }
                        },
                    "audio" : 
                        {
                          "id" : 68,
                          "_type" : "AMFile",
                          "src" : 7,
                          "trackNumber" : 1,
                          "attributes" : {
                            "ident" : "",
                            "sampleRate" : 44100,
                            "bitDepth" : 16,
                            "gain" : 1.0,
                            "mixToMono" : false
                          },
                            "channelNumber" : "0,1",
                          "effects" : [

                          ],
                          "start" : 7102,
                          "duration" : 112,
                          "mediaStart" : 2838,
                          "mediaDuration" : 112,
                          "scalar" : 1,
                          "animationTracks" : {

                          }
                        }
,
                    "start" : 7102,
                    "duration" : 112,
                    "mediaStart" : 0,
                    "mediaDuration" : 3661,
                    "scalar" : 1,
                    "metadata" : {
                      "AutoAppliedSmartFocus" : "False",
                      "WinSubProjectDisplayName" : "",
                      "clipSpeedAttribute" : false,
                      "default-scale0" : 1.0,
                      "default-scale1" : 1.0,
                      "default-translation0" : 0.0,
                      "default-translation1" : 0.0
                    }
                  },
                  {
                    "id" : 69,
                    "_type" : "UnifiedMedia",
                    "video" : 
                        {
                          "id" : 70,
                          "_type" : "ScreenVMFile",
                          "src" : 7,
                          "trackNumber" : 0,
                          "attributes" : {
                            "ident" : "Rec 11-03-24 5"
                          },
                          "parameters" : {
                            "translation0" : {
                              "type" : "double",
                              "defaultValue" : 0.0,
                              "interp" : "eioe",
                              "keyframes" : [
                                {
                                  "time" : 1173,
                                  "value" : -155.768361941096,
                                  "duration" : 30
                                },
                                {
                                  "time" : 2003,
                                  "value" : -451.232686580462,
                                  "duration" : 30
                                },
                                {
                                  "time" : 2290,
                                  "value" : 323.3500055981,
                                  "duration" : 30
                                },
                                {
                                  "time" : 2613,
                                  "value" : 222.438648314312,
                                  "duration" : 119
                                }
                              ]
                            },
                            "translation1" : {
                              "type" : "double",
                              "defaultValue" : 0.0,
                              "interp" : "eioe",
                              "keyframes" : [
                                {
                                  "time" : 1173,
                                  "value" : 41.7684986484403,
                                  "duration" : 30
                                },
                                {
                                  "time" : 2003,
                                  "value" : 195.825439703298,
                                  "duration" : 30
                                },
                                {
                                  "time" : 2290,
                                  "value" : 201.696596624155,
                                  "duration" : 30
                                },
                                {
                                  "time" : 2613,
                                  "value" : 56.0068701788338,
                                  "duration" : 119
                                }
                              ]
                            },
                            "scale0" : {
                              "type" : "double",
                              "defaultValue" : 1.0,
                              "interp" : "eioe",
                              "keyframes" : [
                                {
                                  "time" : 1173,
                                  "value" : 1.32044605022118,
                                  "duration" : 30
                                },
                                {
                                  "time" : 2003,
                                  "value" : 1.67011070412545,
                                  "duration" : 30
                                },
                                {
                                  "time" : 2290,
                                  "value" : 1.72018406883735,
                                  "duration" : 30
                                },
                                {
                                  "time" : 2613,
                                  "value" : 1.67011081659761,
                                  "duration" : 119
                                }
                              ]
                            },
                            "scale1" : {
                              "type" : "double",
                              "defaultValue" : 1.0,
                              "interp" : "eioe",
                              "keyframes" : [
                                {
                                  "time" : 1173,
                                  "value" : 1.32044651537695,
                                  "duration" : 30
                                },
                                {
                                  "time" : 2003,
                                  "value" : 1.67011117998598,
                                  "duration" : 30
                                },
                                {
                                  "time" : 2290,
                                  "value" : 1.72018471936145,
                                  "duration" : 30
                                },
                                {
                                  "time" : 2613,
                                  "value" : 1.67011117998598,
                                  "duration" : 119
                                }
                              ]
                            },
                            "cursorScale" : {
                              "type" : "double",
                              "defaultValue" : 1.0,
                              "interp" : "linr"
                            },
                            "cursorOpacity" : {
                              "type" : "double",
                              "defaultValue" : 1.0,
                              "interp" : "linr"
                            }
                          },
                          "effects" : [

                          ],
                          "start" : 7214,
                          "duration" : 137,
                          "mediaStart" : 3014,
                          "mediaDuration" : 137,
                          "scalar" : 1,
                          "animationTracks" : {
                            "visual" : [
                              {
                                "range" : [ 1173, 30]
                              },
                              {
                                "range" : [ 2003, 30]
                              },
                              {
                                "range" : [ 2290, 30]
                              },
                              {
                                "range" : [ 2613, 119]
                              }
                            ]
                          }
                        },
                    "audio" : 
                        {
                          "id" : 71,
                          "_type" : "AMFile",
                          "src" : 7,
                          "trackNumber" : 1,
                          "attributes" : {
                            "ident" : "",
                            "sampleRate" : 44100,
                            "bitDepth" : 16,
                            "gain" : 1.0,
                            "mixToMono" : false
                          },
                            "channelNumber" : "0,1",
                          "effects" : [

                          ],
                          "start" : 7214,
                          "duration" : 137,
                          "mediaStart" : 3014,
                          "mediaDuration" : 137,
                          "scalar" : 1,
                          "animationTracks" : {

                          }
                        }
,
                    "start" : 7214,
                    "duration" : 137,
                    "mediaStart" : 0,
                    "mediaDuration" : 3661,
                    "scalar" : 1,
                    "metadata" : {
                      "AutoAppliedSmartFocus" : "False",
                      "WinSubProjectDisplayName" : "",
                      "clipSpeedAttribute" : false,
                      "default-scale0" : 1.0,
                      "default-scale1" : 1.0,
                      "default-translation0" : 0.0,
                      "default-translation1" : 0.0
                    }
                  },
                  {
                    "id" : 72,
                    "_type" : "AMFile",
                    "src" : 2,
                    "trackNumber" : 2,
                    "attributes" : {
                      "ident" : "Rec 11-03-24",
                      "sampleRate" : 44100,
                      "bitDepth" : 16,
                      "gain" : 1.0,
                      "mixToMono" : false
                    },
                      "channelNumber" : "0,1",
                    "effects" : [

                    ],
                    "start" : 7351,
                    "duration" : 2270,
                    "mediaStart" : 5276,
                    "mediaDuration" : 2270,
                    "scalar" : 1,
                    "metadata" : {
                      "WinSubProjectDisplayName" : "",
                      "clipSpeedAttribute" : false
                    },
                    "animationTracks" : {

                    }
                  },
                  {
                    "id" : 73,
                    "_type" : "AMFile",
                    "src" : 8,
                    "trackNumber" : 1,
                    "attributes" : {
                      "ident" : "Rec 11-03-24 6",
                      "sampleRate" : 44100,
                      "bitDepth" : 16,
                      "gain" : 1.0,
                      "mixToMono" : false
                    },
                      "channelNumber" : "0,1",
                    "effects" : [

                    ],
                    "start" : 9621,
                    "duration" : 72,
                    "mediaStart" : 18,
                    "mediaDuration" : 72,
                    "scalar" : 1,
                    "metadata" : {
                      "WinSubProjectDisplayName" : "",
                      "clipSpeedAttribute" : false
                    },
                    "animationTracks" : {

                    }
                  },
                  {
                    "id" : 74,
                    "_type" : "AMFile",
                    "src" : 11,
                    "trackNumber" : 1,
                    "attributes" : {
                      "ident" : "Rec 11-03-24 11",
                      "sampleRate" : 44100,
                      "bitDepth" : 16,
                      "gain" : 1.0,
                      "mixToMono" : false
                    },
                      "channelNumber" : "0,1",
                    "effects" : [

                    ],
                    "start" : 9693,
                    "duration" : 147,
                    "mediaStart" : 0,
                    "mediaDuration" : 147,
                    "scalar" : 1,
                    "metadata" : {
                      "WinSubProjectDisplayName" : "",
                      "clipSpeedAttribute" : false
                    },
                    "animationTracks" : {

                    }
                  },
                  {
                    "id" : 75,
                    "_type" : "AMFile",
                    "src" : 12,
                    "trackNumber" : 1,
                    "attributes" : {
                      "ident" : "Rec 11-03-24 12",
                      "sampleRate" : 44100,
                      "bitDepth" : 16,
                      "gain" : 1.0,
                      "mixToMono" : false
                    },
                      "channelNumber" : "0,1",
                    "effects" : [

                    ],
                    "start" : 9840,
                    "duration" : 81,
                    "mediaStart" : 26,
                    "mediaDuration" : 81,
                    "scalar" : 1,
                    "metadata" : {
                      "WinSubProjectDisplayName" : "",
                      "clipSpeedAttribute" : false
                    },
                    "animationTracks" : {

                    }
                  },
                  {
                    "id" : 76,
                    "_type" : "AMFile",
                    "src" : 11,
                    "trackNumber" : 1,
                    "attributes" : {
                      "ident" : "Rec 11-03-24 11",
                      "sampleRate" : 44100,
                      "bitDepth" : 16,
                      "gain" : 1.0,
                      "mixToMono" : false
                    },
                      "channelNumber" : "0,1",
                    "effects" : [

                    ],
                    "start" : 9921,
                    "duration" : 177,
                    "mediaStart" : 303,
                    "mediaDuration" : 177,
                    "scalar" : 1,
                    "metadata" : {
                      "WinSubProjectDisplayName" : "",
                      "clipSpeedAttribute" : false
                    },
                    "animationTracks" : {

                    }
                  },
                  {
                    "id" : 77,
                    "_type" : "AMFile",
                    "src" : 11,
                    "trackNumber" : 1,
                    "attributes" : {
                      "ident" : "Rec 11-03-24 11",
                      "sampleRate" : 44100,
                      "bitDepth" : 16,
                      "gain" : 1.0,
                      "mixToMono" : false
                    },
                      "channelNumber" : "0,1",
                    "effects" : [

                    ],
                    "start" : 10098,
                    "duration" : 1726,
                    "mediaStart" : 480,
                    "mediaDuration" : 1726,
                    "scalar" : 1,
                    "metadata" : {
                      "WinSubProjectDisplayName" : "",
                      "clipSpeedAttribute" : false
                    },
                    "animationTracks" : {

                    }
                  },
                  {
                    "id" : 78,
                    "_type" : "AMFile",
                    "src" : 11,
                    "trackNumber" : 1,
                    "attributes" : {
                      "ident" : "Rec 11-03-24 11",
                      "sampleRate" : 44100,
                      "bitDepth" : 16,
                      "gain" : 1.0,
                      "mixToMono" : false
                    },
                      "channelNumber" : "0,1",
                    "effects" : [

                    ],
                    "start" : 11824,
                    "duration" : 387,
                    "mediaStart" : 3637,
                    "mediaDuration" : 387,
                    "scalar" : 1,
                    "metadata" : {
                      "WinSubProjectDisplayName" : "",
                      "clipSpeedAttribute" : false
                    },
                    "animationTracks" : {

                    }
                  },
                  {
                    "id" : 79,
                    "_type" : "AMFile",
                    "src" : 9,
                    "trackNumber" : 1,
                    "attributes" : {
                      "ident" : "Rec 11-03-24 8",
                      "sampleRate" : 44100,
                      "bitDepth" : 16,
                      "gain" : 1.0,
                      "mixToMono" : false
                    },
                      "channelNumber" : "0,1",
                    "effects" : [

                    ],
                    "start" : 12211,
                    "duration" : 5165,
                    "mediaStart" : 1469,
                    "mediaDuration" : 5165,
                    "scalar" : 1,
                    "metadata" : {
                      "WinSubProjectDisplayName" : "",
                      "clipSpeedAttribute" : false
                    },
                    "animationTracks" : {

                    }
                  },
                  {
                    "id" : 80,
                    "_type" : "AMFile",
                    "src" : 9,
                    "trackNumber" : 1,
                    "attributes" : {
                      "ident" : "Rec 11-03-24 8",
                      "sampleRate" : 44100,
                      "bitDepth" : 16,
                      "gain" : 1.0,
                      "mixToMono" : false
                    },
                      "channelNumber" : "0,1",
                    "effects" : [

                    ],
                    "start" : 17376,
                    "duration" : 780,
                    "mediaStart" : 6728,
                    "mediaDuration" : 780,
                    "scalar" : 1,
                    "metadata" : {
                      "WinSubProjectDisplayName" : "",
                      "clipSpeedAttribute" : false
                    },
                    "animationTracks" : {

                    }
                  },
                  {
                    "id" : 81,
                    "_type" : "AMFile",
                    "src" : 20,
                    "trackNumber" : 1,
                    "attributes" : {
                      "ident" : "Rec 11-03-24 13",
                      "sampleRate" : 44100,
                      "bitDepth" : 16,
                      "gain" : 1.0,
                      "mixToMono" : false
                    },
                      "channelNumber" : "0,1",
                    "effects" : [

                    ],
                    "start" : 18156,
                    "duration" : 69,
                    "mediaStart" : 43,
                    "mediaDuration" : 69,
                    "scalar" : 1,
                    "metadata" : {
                      "WinSubProjectDisplayName" : "",
                      "clipSpeedAttribute" : false
                    },
                    "animationTracks" : {

                    }
                  },
                  {
                    "id" : 82,
                    "_type" : "AMFile",
                    "src" : 9,
                    "trackNumber" : 1,
                    "attributes" : {
                      "ident" : "Rec 11-03-24 8",
                      "sampleRate" : 44100,
                      "bitDepth" : 16,
                      "gain" : 1.0,
                      "mixToMono" : false
                    },
                      "channelNumber" : "0,1",
                    "effects" : [

                    ],
                    "start" : 18225,
                    "duration" : 323,
                    "mediaStart" : 7589,
                    "mediaDuration" : 323,
                    "scalar" : 1,
                    "metadata" : {
                      "WinSubProjectDisplayName" : "",
                      "clipSpeedAttribute" : false
                    },
                    "animationTracks" : {

                    }
                  },
                  {
                    "id" : 83,
                    "_type" : "AMFile",
                    "src" : 22,
                    "trackNumber" : 1,
                    "attributes" : {
                      "ident" : "Rec 11-03-24 15",
                      "sampleRate" : 44100,
                      "bitDepth" : 16,
                      "gain" : 1.0,
                      "mixToMono" : false
                    },
                      "channelNumber" : "0,1",
                    "effects" : [

                    ],
                    "start" : 18548,
                    "duration" : 737,
                    "mediaStart" : 0,
                    "mediaDuration" : 737,
                    "scalar" : 1,
                    "metadata" : {
                      "WinSubProjectDisplayName" : "",
                      "clipSpeedAttribute" : false
                    },
                    "animationTracks" : {

                    }
                  },
                  {
                    "id" : 84,
                    "_type" : "AMFile",
                    "src" : 9,
                    "trackNumber" : 1,
                    "attributes" : {
                      "ident" : "Rec 11-03-24 8",
                      "sampleRate" : 44100,
                      "bitDepth" : 16,
                      "gain" : 1.0,
                      "mixToMono" : false
                    },
                      "channelNumber" : "0,1",
                    "effects" : [

                    ],
                    "start" : 19285,
                    "duration" : 2696,
                    "mediaStart" : 9204,
                    "mediaDuration" : 2696,
                    "scalar" : 1,
                    "metadata" : {
                      "WinSubProjectDisplayName" : "",
                      "clipSpeedAttribute" : false
                    },
                    "animationTracks" : {

                    }
                  },
                  {
                    "id" : 85,
                    "_type" : "AMFile",
                    "src" : 26,
                    "trackNumber" : 1,
                    "attributes" : {
                      "ident" : "Rec 11-03-24 17",
                      "sampleRate" : 44100,
                      "bitDepth" : 16,
                      "gain" : 1.0,
                      "mixToMono" : false
                    },
                      "channelNumber" : "0,1",
                    "effects" : [

                    ],
                    "start" : 21981,
                    "duration" : 935,
                    "mediaStart" : 0,
                    "mediaDuration" : 935,
                    "scalar" : 1,
                    "metadata" : {
                      "WinSubProjectDisplayName" : "",
                      "clipSpeedAttribute" : false
                    },
                    "animationTracks" : {

                    }
                  },
                  {
                    "id" : 86,
                    "_type" : "AMFile",
                    "src" : 9,
                    "trackNumber" : 1,
                    "attributes" : {
                      "ident" : "Rec 11-03-24 8",
                      "sampleRate" : 44100,
                      "bitDepth" : 16,
                      "gain" : 1.0,
                      "mixToMono" : false
                    },
                      "channelNumber" : "0,1",
                    "effects" : [

                    ],
                    "start" : 22916,
                    "duration" : 1598,
                    "mediaStart" : 12530,
                    "mediaDuration" : 1598,
                    "scalar" : 1,
                    "metadata" : {
                      "WinSubProjectDisplayName" : "",
                      "clipSpeedAttribute" : false
                    },
                    "animationTracks" : {

                    }
                  },
                  {
                    "id" : 87,
                    "_type" : "AMFile",
                    "src" : 9,
                    "trackNumber" : 1,
                    "attributes" : {
                      "ident" : "Rec 11-03-24 8",
                      "sampleRate" : 44100,
                      "bitDepth" : 16,
                      "gain" : 1.0,
                      "mixToMono" : false
                    },
                      "channelNumber" : "0,1",
                    "effects" : [

                    ],
                    "start" : 24514,
                    "duration" : 2930,
                    "mediaStart" : 14483,
                    "mediaDuration" : 2930,
                    "scalar" : 1,
                    "metadata" : {
                      "WinSubProjectDisplayName" : "",
                      "clipSpeedAttribute" : false
                    },
                    "animationTracks" : {

                    }
                  },
                  {
                    "id" : 88,
                    "_type" : "AMFile",
                    "src" : 9,
                    "trackNumber" : 1,
                    "attributes" : {
                      "ident" : "Rec 11-03-24 8",
                      "sampleRate" : 44100,
                      "bitDepth" : 16,
                      "gain" : 1.0,
                      "mixToMono" : false
                    },
                      "channelNumber" : "0,1",
                    "effects" : [

                    ],
                    "start" : 27444,
                    "duration" : 281,
                    "mediaStart" : 17457,
                    "mediaDuration" : 281,
                    "scalar" : 1,
                    "metadata" : {
                      "WinSubProjectDisplayName" : "",
                      "clipSpeedAttribute" : false
                    },
                    "animationTracks" : {

                    }
                  },
                  {
                    "id" : 89,
                    "_type" : "AMFile",
                    "src" : 30,
                    "trackNumber" : 1,
                    "attributes" : {
                      "ident" : "Rec 11-03-24 18",
                      "sampleRate" : 44100,
                      "bitDepth" : 16,
                      "gain" : 1.0,
                      "mixToMono" : false
                    },
                      "channelNumber" : "0,1",
                    "effects" : [

                    ],
                    "start" : 27725,
                    "duration" : 348,
                    "mediaStart" : 259,
                    "mediaDuration" : 348,
                    "scalar" : 1,
                    "metadata" : {
                      "WinSubProjectDisplayName" : "",
                      "clipSpeedAttribute" : false
                    },
                    "animationTracks" : {

                    }
                  },
                  {
                    "id" : 90,
                    "_type" : "AMFile",
                    "src" : 30,
                    "trackNumber" : 1,
                    "attributes" : {
                      "ident" : "Rec 11-03-24 18",
                      "sampleRate" : 44100,
                      "bitDepth" : 16,
                      "gain" : 1.0,
                      "mixToMono" : false
                    },
                      "channelNumber" : "0,1",
                    "effects" : [

                    ],
                    "start" : 28073,
                    "duration" : 1177,
                    "mediaStart" : 1465,
                    "mediaDuration" : 1177,
                    "scalar" : 1,
                    "metadata" : {
                      "WinSubProjectDisplayName" : "",
                      "clipSpeedAttribute" : false
                    },
                    "animationTracks" : {

                    }
                  },
                  {
                    "id" : 91,
                    "_type" : "AMFile",
                    "src" : 35,
                    "trackNumber" : 1,
                    "attributes" : {
                      "ident" : "Rec 11-03-24 19",
                      "sampleRate" : 44100,
                      "bitDepth" : 16,
                      "gain" : 1.0,
                      "mixToMono" : false
                    },
                      "channelNumber" : "0,1",
                    "effects" : [

                    ],
                    "start" : 29250,
                    "duration" : 757,
                    "mediaStart" : 0,
                    "mediaDuration" : 757,
                    "scalar" : 1,
                    "metadata" : {
                      "WinSubProjectDisplayName" : "",
                      "clipSpeedAttribute" : false
                    },
                    "animationTracks" : {

                    }
                  },
                  {
                    "id" : 92,
                    "_type" : "AMFile",
                    "src" : 30,
                    "trackNumber" : 1,
                    "attributes" : {
                      "ident" : "Rec 11-03-24 18",
                      "sampleRate" : 44100,
                      "bitDepth" : 16,
                      "gain" : 1.0,
                      "mixToMono" : false
                    },
                      "channelNumber" : "0,1",
                    "effects" : [

                    ],
                    "start" : 30007,
                    "duration" : 235,
                    "mediaStart" : 2642,
                    "mediaDuration" : 235,
                    "scalar" : 1,
                    "metadata" : {
                      "WinSubProjectDisplayName" : "",
                      "clipSpeedAttribute" : false
                    },
                    "animationTracks" : {

                    }
                  },
                  {
                    "id" : 93,
                    "_type" : "AMFile",
                    "src" : 30,
                    "trackNumber" : 1,
                    "attributes" : {
                      "ident" : "Rec 11-03-24 18",
                      "sampleRate" : 44100,
                      "bitDepth" : 16,
                      "gain" : 1.0,
                      "mixToMono" : false
                    },
                      "channelNumber" : "0,1",
                    "effects" : [

                    ],
                    "start" : 30242,
                    "duration" : 429,
                    "mediaStart" : 2987,
                    "mediaDuration" : 429,
                    "scalar" : 1,
                    "metadata" : {
                      "WinSubProjectDisplayName" : "",
                      "clipSpeedAttribute" : false
                    },
                    "animationTracks" : {

                    }
                  },
                  {
                    "id" : 94,
                    "_type" : "AMFile",
                    "src" : 30,
                    "trackNumber" : 1,
                    "attributes" : {
                      "ident" : "Rec 11-03-24 18",
                      "sampleRate" : 44100,
                      "bitDepth" : 16,
                      "gain" : 1.0,
                      "mixToMono" : false
                    },
                      "channelNumber" : "0,1",
                    "effects" : [

                    ],
                    "start" : 30671,
                    "duration" : 96,
                    "mediaStart" : 3885,
                    "mediaDuration" : 96,
                    "scalar" : 1,
                    "metadata" : {
                      "WinSubProjectDisplayName" : "",
                      "clipSpeedAttribute" : false
                    },
                    "animationTracks" : {

                    }
                  },
                  {
                    "id" : 95,
                    "_type" : "AMFile",
                    "src" : 30,
                    "trackNumber" : 1,
                    "attributes" : {
                      "ident" : "Rec 11-03-24 18",
                      "sampleRate" : 44100,
                      "bitDepth" : 16,
                      "gain" : 1.0,
                      "mixToMono" : false
                    },
                      "channelNumber" : "0,1",
                    "effects" : [

                    ],
                    "start" : 30767,
                    "duration" : 553,
                    "mediaStart" : 4087,
                    "mediaDuration" : 553,
                    "scalar" : 1,
                    "metadata" : {
                      "WinSubProjectDisplayName" : "",
                      "clipSpeedAttribute" : false
                    },
                    "animationTracks" : {

                    }
                  },
                  {
                    "id" : 96,
                    "_type" : "AMFile",
                    "src" : 36,
                    "trackNumber" : 1,
                    "attributes" : {
                      "ident" : "Rec 11-04-24 2",
                      "sampleRate" : 44100,
                      "bitDepth" : 16,
                      "gain" : 1.0,
                      "mixToMono" : false
                    },
                      "channelNumber" : "0,1",
                    "effects" : [

                    ],
                    "start" : 31320,
                    "duration" : 669,
                    "mediaStart" : 0,
                    "mediaDuration" : 669,
                    "scalar" : 1,
                    "metadata" : {
                      "WinSubProjectDisplayName" : "",
                      "clipSpeedAttribute" : false
                    },
                    "animationTracks" : {

                    }
                  },
                  {
                    "id" : 97,
                    "_type" : "AMFile",
                    "src" : 36,
                    "trackNumber" : 1,
                    "attributes" : {
                      "ident" : "Rec 11-04-24 2",
                      "sampleRate" : 44100,
                      "bitDepth" : 16,
                      "gain" : 1.0,
                      "mixToMono" : false
                    },
                      "channelNumber" : "0,1",
                    "effects" : [

                    ],
                    "start" : 31989,
                    "duration" : 2011,
                    "mediaStart" : 744,
                    "mediaDuration" : 2011,
                    "scalar" : 1,
                    "metadata" : {
                      "WinSubProjectDisplayName" : "",
                      "clipSpeedAttribute" : false
                    },
                    "animationTracks" : {

                    }
                  },
                  {
                    "id" : 98,
                    "_type" : "AMFile",
                    "src" : 36,
                    "trackNumber" : 1,
                    "attributes" : {
                      "ident" : "Rec 11-04-24 2",
                      "sampleRate" : 44100,
                      "bitDepth" : 16,
                      "gain" : 1.0,
                      "mixToMono" : false
                    },
                      "channelNumber" : "0,1",
                    "effects" : [

                    ],
                    "start" : 34000,
                    "duration" : 3674,
                    "mediaStart" : 3062,
                    "mediaDuration" : 3674,
                    "scalar" : 1,
                    "metadata" : {
                      "WinSubProjectDisplayName" : "",
                      "clipSpeedAttribute" : false
                    },
                    "animationTracks" : {

                    }
                  },
                  {
                    "id" : 99,
                    "_type" : "AMFile",
                    "src" : 36,
                    "trackNumber" : 1,
                    "attributes" : {
                      "ident" : "Rec 11-04-24 2",
                      "sampleRate" : 44100,
                      "bitDepth" : 16,
                      "gain" : 1.0,
                      "mixToMono" : false
                    },
                      "channelNumber" : "0,1",
                    "effects" : [

                    ],
                    "start" : 37674,
                    "duration" : 98,
                    "mediaStart" : 6769,
                    "mediaDuration" : 98,
                    "scalar" : 1,
                    "metadata" : {
                      "WinSubProjectDisplayName" : "",
                      "clipSpeedAttribute" : false
                    },
                    "animationTracks" : {

                    }
                  },
                  {
                    "id" : 100,
                    "_type" : "AMFile",
                    "src" : 37,
                    "trackNumber" : 1,
                    "attributes" : {
                      "ident" : "Rec 11-04-24 3",
                      "sampleRate" : 44100,
                      "bitDepth" : 16,
                      "gain" : 1.0,
                      "mixToMono" : false
                    },
                      "channelNumber" : "0,1",
                    "effects" : [

                    ],
                    "start" : 37772,
                    "duration" : 301,
                    "mediaStart" : 67,
                    "mediaDuration" : 301,
                    "scalar" : 1,
                    "metadata" : {
                      "WinSubProjectDisplayName" : "",
                      "clipSpeedAttribute" : false
                    },
                    "animationTracks" : {

                    }
                  },
                  {
                    "id" : 101,
                    "_type" : "Callout",
                    "def" : {
                      "kind" : "remix",
                      "shape" : "text-rectangle",
                      "style" : "basic",
                      "fill-color-blue" : 1.0,
                      "fill-color-green" : 1.0,
                      "fill-color-opacity" : 1.0,
                      "fill-color-red" : 1.0,
                      "height" : 322.727272727239,
                      "stroke-color-blue" : 0.56078431372549,
                      "stroke-color-green" : 0.686274509803922,
                      "stroke-color-opacity" : 1.0,
                      "stroke-color-red" : 0.0196078431372549,
                      "stroke-width" : 2.0,
                      "tail-x" : 1.2978773611394e-10,
                      "tail-y" : -33.6363636362848,
                      "width" : 584.146341463441,
                      "word-wrap" : 1.0,
                      "fill-style" : "solid",
                      "horizontal-alignment" : "center",
                      "stroke-style" : "solid",
                      "text" : "College of Engineering & Technology\rDept of Technology Systems\r\rFaculty: Steve Baker",
                      "vertical-alignment" : "center",
                      "font" : {
                        "color-blue" : 0.266666666666667,
                        "color-green" : 0.231372549019608,
                        "color-opacity" : 1.0,
                        "color-red" : 0.184313725490196,
                        "size" : 64.0,
                        "tracking" : 0.0,
                        "name" : "Montserrat",
                        "weight" : "Regular"
                      },
                      "textAttributes" : {
                        "type" : "textAttributeList",
                        "keyframes" : [
                          {
                            "time" : 0,
                            "value" : [{"name":"fgColor","rangeEnd":84,"rangeStart":0,"value":"(47,59,68,255)","valueType":"color"},{"name":"fontWeight","rangeEnd":84,"rangeStart":0,"value":400,"valueType":"int"},{"name":"fontName","rangeEnd":84,"rangeStart":0,"value":"Montserrat","valueType":"string"},{"name":"fontSize","rangeEnd":62,"rangeStart":0,"value":36,"valueType":"double"},{"name":"strikethrough","rangeEnd":84,"rangeStart":0,"value":0,"valueType":"int"},{"name":"underline","rangeEnd":84,"rangeStart":0,"value":0,"valueType":"int"},{"name":"fontSize","rangeEnd":84,"rangeStart":62,"value":40,"valueType":"double"},{"name":"fontItalic","rangeEnd":84,"rangeStart":0,"value":0,"valueType":"int"}],
                            "duration" : 0
                          }
                        ]
                      }
                    },
                    "attributes" : {
                      "autoRotateText" : true
                    },
                    "parameters" : {
                      "translation0" : -3.33741922986519e-10,
                      "translation1" : -277.406393986578,
                      "toc" : {
                        "type" : "string",
                        "keyframes" : [
                          {
                            "time" : 111,
                            "value" : "Marker 3",
                            "duration" : 0,
                            "metadata" : {
                              "Checked" : "True",
                              "IndentLevel" : "0",
                              "markerIdentifier" : "F794A93B-DB02-4742-AD5A-50F475D532DD"
                            }
                          }
                        ]
                      }
                    },
                    "effects" : [
                        {
                          "effectName" : "DropShadow",
                          "category" : "categoryVisualEffects",
                          "parameters" : {
                            "angle" : 5.49778714378214,
                            "blur" : 10.0,
                            "color-alpha" : 1.0,
                            "color-blue" : 0.1216,
                            "color-green" : 0.1216,
                            "color-red" : 0.1216,
                            "enabled" : 1,
                            "offset" : 10.0,
                            "opacity" : 0.4
                          }
                        }
                    ],
                    "start" : 38073,
                    "duration" : 277,
                    "mediaStart" : 0,
                    "mediaDuration" : 277,
                    "scalar" : 1,
                    "metadata" : {
                      "WinSubProjectDisplayName" : "",
                      "clipSpeedAttribute" : false,
                      "default-HAlign" : "center",
                      "default-VAlign" : "center",
                      "default-text-attributes" : "[{\"name\":\"strikethrough\",\"rangeEnd\":33,\"rangeStart\":0,\"value\":0,\"valueType\":\"int\"},{\"name\":\"fgColor\",\"rangeEnd\":33,\"rangeStart\":0,\"value\":\"(47,59,68,255)\",\"valueType\":\"color\"},{\"name\":\"underline\",\"rangeEnd\":33,\"rangeStart\":0,\"value\":0,\"valueType\":\"int\"},{\"name\":\"fontSize\",\"rangeEnd\":33,\"rangeStart\":0,\"value\":64,\"valueType\":\"double\"},{\"name\":\"fontItalic\",\"rangeEnd\":33,\"rangeStart\":0,\"value\":0,\"valueType\":\"int\"},{\"name\":\"fontWeight\",\"rangeEnd\":33,\"rangeStart\":0,\"value\":400,\"valueType\":\"int\"},{\"name\":\"fontName\",\"rangeEnd\":33,\"rangeStart\":0,\"value\":\"Montserrat\",\"valueType\":\"string\"}]",
                      "default-translation0" : 0.0,
                      "default-translation1" : 0.0
                    },
                    "animationTracks" : {

                    }
                  }
                ],
                "transitions" : [
                  {
                    "name" : "Fade",
                    "duration" : 13,
                    "trivial" : false,
                    "useAudioPreRoll" : true,
                    "useVisualPreRoll" : true,
                    "rightMedia" : 54
                  },
                  {
                    "name" : "Fade",
                    "duration" : 2,
                    "trivial" : false,
                    "useAudioPreRoll" : true,
                    "useVisualPreRoll" : true,
                    "leftMedia" : 54
                  },
                  {
                    "name" : "Fade",
                    "duration" : 48,
                    "trivial" : false,
                    "useAudioPreRoll" : true,
                    "useVisualPreRoll" : true,
                    "rightMedia" : 101
                  }
                ]
              },
              {
                "trackIndex" : 2,
                "medias" : [
                  {
                    "id" : 102,
                    "_type" : "AMFile",
                    "src" : 2,
                    "trackNumber" : 2,
                    "attributes" : {
                      "ident" : "Rec 11-03-24",
                      "sampleRate" : 44100,
                      "bitDepth" : 16,
                      "gain" : 1.0,
                      "mixToMono" : false
                    },
                      "channelNumber" : "0,1",
                    "effects" : [

                    ],
                    "start" : 184,
                    "duration" : 1183,
                    "mediaStart" : 0,
                    "mediaDuration" : 1183,
                    "scalar" : 1,
                    "metadata" : {
                      "WinSubProjectDisplayName" : "",
                      "clipSpeedAttribute" : false
                    },
                    "animationTracks" : {

                    }
                  },
                  {
                    "id" : 103,
                    "_type" : "AMFile",
                    "src" : 2,
                    "trackNumber" : 2,
                    "attributes" : {
                      "ident" : "Rec 11-03-24",
                      "sampleRate" : 44100,
                      "bitDepth" : 16,
                      "gain" : 1.0,
                      "mixToMono" : false
                    },
                      "channelNumber" : "0,1",
                    "effects" : [

                    ],
                    "start" : 1367,
                    "duration" : 1046,
                    "mediaStart" : 1226,
                    "mediaDuration" : 1046,
                    "scalar" : 1,
                    "metadata" : {
                      "WinSubProjectDisplayName" : "",
                      "clipSpeedAttribute" : false
                    },
                    "animationTracks" : {

                    }
                  },
                  {
                    "id" : 104,
                    "_type" : "IMFile",
                    "src" : 13,
                    "trackNumber" : 0,
                    "trimStartSum" : 0,
                    "attributes" : {
                      "ident" : "part3range"
                    },
                    "parameters" : {
                      "translation0" : {
                        "type" : "double",
                        "defaultValue" : 26.1904761903185,
                        "interp" : "eioe",
                        "keyframes" : [
                          {
                            "time" : 146,
                            "value" : 2146.85673054089,
                            "duration" : 30
                          }
                        ]
                      },
                      "translation1" : {
                        "type" : "double",
                        "defaultValue" : 7.70441488384677e-11,
                        "interp" : "eioe",
                        "keyframes" : [
                          {
                            "time" : 146,
                            "value" : -140.04400435061,
                            "duration" : 30
                          }
                        ]
                      },
                      "scale0" : {
                        "type" : "double",
                        "defaultValue" : 1.53427997705249,
                        "interp" : "eioe",
                        "keyframes" : [
                          {
                            "time" : 146,
                            "value" : 1.53428000415736,
                            "duration" : 30
                          }
                        ]
                      },
                      "scale1" : {
                        "type" : "double",
                        "defaultValue" : 1.53427997705249,
                        "interp" : "eioe"
                      }
                    },
                    "effects" : [

                    ],
                    "start" : 11239,
                    "duration" : 585,
                    "mediaStart" : 0,
                    "mediaDuration" : 1,
                    "scalar" : 1,
                    "metadata" : {
                      "WinSubProjectDisplayName" : "",
                      "clipSpeedAttribute" : false,
                      "default-scale0" : 1.0,
                      "default-scale1" : 1.0,
                      "default-translation0" : 0.0,
                      "default-translation1" : 0.0
                    },
                    "animationTracks" : {
                      "visual" : [
                        {
                          "range" : [ 146, 30]
                        }
                      ]
                    }
                  },
                  {
                    "id" : 105,
                    "_type" : "IMFile",
                    "src" : 14,
                    "trackNumber" : 0,
                    "trimStartSum" : 0,
                    "attributes" : {
                      "ident" : "part3showipintbrief"
                    },
                    "parameters" : {
                      "translation0" : {
                        "type" : "double",
                        "defaultValue" : 36.9047619046046,
                        "interp" : "eioe"
                      },
                      "translation1" : {
                        "type" : "double",
                        "defaultValue" : 1.33319133510668e-10,
                        "interp" : "eioe"
                      },
                      "scale0" : {
                        "type" : "double",
                        "defaultValue" : 2.52855704215195,
                        "interp" : "eioe"
                      },
                      "scale1" : {
                        "type" : "double",
                        "defaultValue" : 2.42108521895696,
                        "interp" : "eioe"
                      }
                    },
                    "effects" : [

                    ],
                    "start" : 11832,
                    "duration" : 379,
                    "mediaStart" : 0,
                    "mediaDuration" : 1,
                    "scalar" : 1,
                    "metadata" : {
                      "WinSubProjectDisplayName" : "",
                      "clipSpeedAttribute" : false,
                      "default-scale0" : 1.0,
                      "default-scale1" : 1.0,
                      "default-translation0" : 0.0,
                      "default-translation1" : -0.5
                    },
                    "animationTracks" : {

                    }
                  },
                  {
                    "id" : 106,
                    "_type" : "IMFile",
                    "src" : 15,
                    "trackNumber" : 0,
                    "trimStartSum" : 0,
                    "attributes" : {
                      "ident" : "part3portsec"
                    },
                    "parameters" : {
                      "translation0" : {
                        "type" : "double",
                        "defaultValue" : -288.872093024253,
                        "interp" : "eioe"
                      },
                      "translation1" : {
                        "type" : "double",
                        "defaultValue" : -55.1140777000346,
                        "interp" : "eioe"
                      },
                      "scale0" : {
                        "type" : "double",
                        "defaultValue" : 2.39629227793995,
                        "interp" : "eioe"
                      },
                      "scale1" : {
                        "type" : "double",
                        "defaultValue" : 1.86494585500026,
                        "interp" : "eioe"
                      }
                    },
                    "effects" : [

                    ],
                    "start" : 14378,
                    "duration" : 976,
                    "mediaStart" : 0,
                    "mediaDuration" : 1,
                    "scalar" : 1,
                    "metadata" : {
                      "WinSubProjectDisplayName" : "",
                      "clipSpeedAttribute" : false,
                      "default-scale0" : 1.0,
                      "default-scale1" : 1.0,
                      "default-translation0" : -0.5,
                      "default-translation1" : 0.0
                    },
                    "animationTracks" : {

                    }
                  },
                  {
                    "id" : 107,
                    "_type" : "IMFile",
                    "src" : 16,
                    "trackNumber" : 0,
                    "trimStartSum" : 0,
                    "attributes" : {
                      "ident" : "part3showportsecurityinterface"
                    },
                    "parameters" : {
                      "translation0" : {
                        "type" : "double",
                        "defaultValue" : -32.02687740867,
                        "interp" : "eioe"
                      },
                      "translation1" : {
                        "type" : "double",
                        "defaultValue" : 3.2651215065016e-11,
                        "interp" : "eioe"
                      },
                      "scale0" : {
                        "type" : "double",
                        "defaultValue" : 3.65010864823656,
                        "interp" : "eioe"
                      },
                      "scale1" : {
                        "type" : "double",
                        "defaultValue" : 3.65010864823656,
                        "interp" : "eioe"
                      }
                    },
                    "effects" : [

                    ],
                    "start" : 15354,
                    "duration" : 1896,
                    "mediaStart" : 0,
                    "mediaDuration" : 1,
                    "scalar" : 1,
                    "metadata" : {
                      "WinSubProjectDisplayName" : "",
                      "clipSpeedAttribute" : false,
                      "default-scale0" : 1.0,
                      "default-scale1" : 1.0,
                      "default-translation0" : -0.5,
                      "default-translation1" : -0.5
                    },
                    "animationTracks" : {

                    }
                  },
                  {
                    "id" : 108,
                    "_type" : "IMFile",
                    "src" : 17,
                    "trackNumber" : 0,
                    "trimStartSum" : 0,
                    "attributes" : {
                      "ident" : "part3switcportsecoptions"
                    },
                    "parameters" : {
                      "translation0" : {
                        "type" : "double",
                        "defaultValue" : -43.9385382060954,
                        "interp" : "eioe"
                      },
                      "translation1" : {
                        "type" : "double",
                        "defaultValue" : 58.661359200983,
                        "interp" : "eioe"
                      },
                      "scale0" : {
                        "type" : "double",
                        "defaultValue" : 3.22591362126372,
                        "interp" : "eioe"
                      },
                      "scale1" : {
                        "type" : "double",
                        "defaultValue" : 3.22591362126372,
                        "interp" : "eioe"
                      }
                    },
                    "effects" : [

                    ],
                    "start" : 17250,
                    "duration" : 623,
                    "mediaStart" : 0,
                    "mediaDuration" : 1,
                    "scalar" : 1,
                    "metadata" : {
                      "WinSubProjectDisplayName" : "",
                      "clipSpeedAttribute" : false,
                      "default-scale0" : 1.0,
                      "default-scale1" : 1.0,
                      "default-translation0" : -0.5,
                      "default-translation1" : 0.0
                    },
                    "animationTracks" : {

                    }
                  },
                  {
                    "id" : 109,
                    "_type" : "IMFile",
                    "src" : 19,
                    "trackNumber" : 0,
                    "trimStartSum" : -387,
                    "attributes" : {
                      "ident" : "part3swmaxmac"
                    },
                    "parameters" : {
                      "translation0" : {
                        "type" : "double",
                        "defaultValue" : 12.4011627905923,
                        "interp" : "eioe"
                      },
                      "translation1" : {
                        "type" : "double",
                        "defaultValue" : -3.74154041082875e-11,
                        "interp" : "eioe"
                      },
                      "scale0" : {
                        "type" : "double",
                        "defaultValue" : 2.82443766679539,
                        "interp" : "eioe"
                      },
                      "scale1" : {
                        "type" : "double",
                        "defaultValue" : 2.82443766679539,
                        "interp" : "eioe"
                      }
                    },
                    "effects" : [

                    ],
                    "start" : 17873,
                    "duration" : 1412,
                    "mediaStart" : 0,
                    "mediaDuration" : 1,
                    "scalar" : 1,
                    "metadata" : {
                      "WinSubProjectDisplayName" : "",
                      "clipSpeedAttribute" : false,
                      "default-scale0" : 1.0,
                      "default-scale1" : 1.0,
                      "default-translation0" : -0.5,
                      "default-translation1" : 0.0
                    },
                    "animationTracks" : {

                    }
                  },
                  {
                    "id" : 110,
                    "_type" : "Callout",
                    "def" : {
                      "kind" : "remix",
                      "shape" : "shape-ellipse",
                      "style" : "basic",
                      "fill-color-blue" : 1.0,
                      "fill-color-green" : 1.0,
                      "fill-color-opacity" : 4.50750547997814e-16,
                      "fill-color-red" : 1.0,
                      "height" : 219.534883720958,
                      "stroke-color-blue" : 0.537254901960784,
                      "stroke-color-green" : 0.133333333333333,
                      "stroke-color-opacity" : 1.0,
                      "stroke-color-red" : 0.388235294117647,
                      "stroke-width" : 6.0,
                      "width" : 524.418604650917,
                      "fill-style" : "solid",
                      "horizontal-alignment" : "center",
                      "stroke-style" : "solid",
                      "vertical-alignment" : "center",
                      "textAttributes" : {
                        "type" : "textAttributeList",
                        "keyframes" : [
                          {
                            "time" : 0,
                            "value" : null,
                            "duration" : 0
                          }
                        ]
                      }
                    },
                    "attributes" : {
                      "autoRotateText" : true
                    },
                    "parameters" : {
                      "translation0" : -533.720930233555,
                      "translation1" : 31.39534883727
                    },
                    "effects" : [
                        {
                          "effectName" : "DropShadow",
                          "category" : "categoryVisualEffects",
                          "parameters" : {
                            "angle" : 5.49778714378214,
                            "blur" : 10.0,
                            "color-alpha" : 1.0,
                            "color-blue" : 0.1216,
                            "color-green" : 0.1216,
                            "color-red" : 0.1216,
                            "enabled" : 1,
                            "offset" : 10.0,
                            "opacity" : 0.4
                          }
                        }
                    ],
                    "start" : 19588,
                    "duration" : 1375,
                    "mediaStart" : 0,
                    "mediaDuration" : 1375,
                    "scalar" : 1,
                    "metadata" : {
                      "WinSubProjectDisplayName" : "",
                      "clipSpeedAttribute" : false,
                      "default-fill-color-opacity" : 1.0,
                      "default-translation0" : 0.0,
                      "default-translation1" : 0.0
                    },
                    "animationTracks" : {

                    }
                  },
                  {
                    "id" : 111,
                    "_type" : "Callout",
                    "def" : {
                      "kind" : "remix",
                      "shape" : "shape-ellipse",
                      "style" : "basic",
                      "fill-color-blue" : 1.0,
                      "fill-color-green" : 1.0,
                      "fill-color-opacity" : 0.0250000000000003,
                      "fill-color-red" : 1.0,
                      "height" : 366.046511627844,
                      "stroke-color-blue" : 0.537254901960784,
                      "stroke-color-green" : 0.133333333333333,
                      "stroke-color-opacity" : 1.0,
                      "stroke-color-red" : 0.388235294117647,
                      "stroke-width" : 6.0,
                      "width" : 512.790697674158,
                      "fill-style" : "solid",
                      "horizontal-alignment" : "center",
                      "stroke-style" : "solid",
                      "vertical-alignment" : "center",
                      "textAttributes" : {
                        "type" : "textAttributeList",
                        "keyframes" : [
                          {
                            "time" : 0,
                            "value" : null,
                            "duration" : 0
                          }
                        ]
                      }
                    },
                    "attributes" : {
                      "autoRotateText" : true
                    },
                    "parameters" : {
                      "translation0" : -444.372086637153,
                      "translation1" : -234.356699832483
                    },
                    "effects" : [
                        {
                          "effectName" : "DropShadow",
                          "category" : "categoryVisualEffects",
                          "parameters" : {
                            "angle" : 5.49778714378214,
                            "blur" : 10.0,
                            "color-alpha" : 1.0,
                            "color-blue" : 0.1216,
                            "color-green" : 0.1216,
                            "color-red" : 0.1216,
                            "enabled" : 1,
                            "offset" : 10.0,
                            "opacity" : 0.4
                          }
                        }
                    ],
                    "start" : 20963,
                    "duration" : 1008,
                    "mediaStart" : -131,
                    "mediaDuration" : 1008,
                    "scalar" : 1,
                    "metadata" : {
                      "WinSubProjectDisplayName" : "",
                      "clipSpeedAttribute" : false,
                      "default-fill-color-opacity" : 1.0,
                      "default-translation0" : 0.0,
                      "default-translation1" : 0.0
                    },
                    "animationTracks" : {

                    }
                  },
                  {
                    "id" : 112,
                    "_type" : "IMFile",
                    "src" : 27,
                    "trackNumber" : 0,
                    "trimStartSum" : 0,
                    "attributes" : {
                      "ident" : "part3showrun"
                    },
                    "parameters" : {
                      "translation0" : {
                        "type" : "double",
                        "defaultValue" : 17.2151162794236,
                        "interp" : "eioe"
                      },
                      "translation1" : {
                        "type" : "double",
                        "defaultValue" : 29.2907327510309,
                        "interp" : "eioe"
                      },
                      "scale0" : {
                        "type" : "double",
                        "defaultValue" : 2.76917815426798,
                        "interp" : "eioe"
                      },
                      "scale1" : {
                        "type" : "double",
                        "defaultValue" : 2.76917815426798,
                        "interp" : "eioe"
                      }
                    },
                    "effects" : [

                    ],
                    "start" : 21981,
                    "duration" : 935,
                    "mediaStart" : 0,
                    "mediaDuration" : 1,
                    "scalar" : 1,
                    "metadata" : {
                      "WinSubProjectDisplayName" : "",
                      "clipSpeedAttribute" : false,
                      "default-scale0" : 1.0,
                      "default-scale1" : 1.0,
                      "default-translation0" : -0.5,
                      "default-translation1" : 0.0
                    },
                    "animationTracks" : {

                    }
                  },
                  {
                    "id" : 113,
                    "_type" : "IMFile",
                    "src" : 28,
                    "trackNumber" : 0,
                    "trimStartSum" : 0,
                    "attributes" : {
                      "ident" : "part3portsecurityaging"
                    },
                    "parameters" : {
                      "translation0" : {
                        "type" : "double",
                        "defaultValue" : 20.8928803441234,
                        "interp" : "eioe"
                      },
                      "translation1" : {
                        "type" : "double",
                        "defaultValue" : 33.2209302327997,
                        "interp" : "eioe"
                      },
                      "scale0" : {
                        "type" : "double",
                        "defaultValue" : 2.75393010263518,
                        "interp" : "eioe"
                      },
                      "scale1" : {
                        "type" : "double",
                        "defaultValue" : 2.75393010263519,
                        "interp" : "eioe"
                      }
                    },
                    "effects" : [

                    ],
                    "start" : 22916,
                    "duration" : 1590,
                    "mediaStart" : 0,
                    "mediaDuration" : 1,
                    "scalar" : 1,
                    "metadata" : {
                      "WinSubProjectDisplayName" : "",
                      "clipSpeedAttribute" : false,
                      "default-scale0" : 1.0,
                      "default-scale1" : 1.0,
                      "default-translation0" : 0.0,
                      "default-translation1" : -0.5
                    },
                    "animationTracks" : {

                    }
                  },
                  {
                    "id" : 114,
                    "_type" : "IMFile",
                    "src" : 29,
                    "trackNumber" : 0,
                    "trimStartSum" : 0,
                    "attributes" : {
                      "ident" : "part3portsecurityviolation"
                    },
                    "parameters" : {
                      "translation0" : {
                        "type" : "double",
                        "defaultValue" : 24.8023255807337,
                        "interp" : "eioe"
                      },
                      "translation1" : {
                        "type" : "double",
                        "defaultValue" : 90.1180038587617,
                        "interp" : "eioe"
                      },
                      "scale0" : {
                        "type" : "double",
                        "defaultValue" : 2.79580769632108,
                        "interp" : "eioe"
                      },
                      "scale1" : {
                        "type" : "double",
                        "defaultValue" : 2.79580769632108,
                        "interp" : "eioe"
                      }
                    },
                    "effects" : [

                    ],
                    "start" : 24514,
                    "duration" : 3211,
                    "mediaStart" : 0,
                    "mediaDuration" : 1,
                    "scalar" : 1,
                    "metadata" : {
                      "WinSubProjectDisplayName" : "",
                      "clipSpeedAttribute" : false,
                      "default-scale0" : 1.0,
                      "default-scale1" : 1.0,
                      "default-translation0" : -0.5,
                      "default-translation1" : -0.5
                    },
                    "animationTracks" : {

                    }
                  },
                  {
                    "id" : 115,
                    "_type" : "IMFile",
                    "src" : 33,
                    "trackNumber" : 0,
                    "trimStartSum" : 0,
                    "attributes" : {
                      "ident" : "part3showportsecint"
                    },
                    "parameters" : {
                      "translation0" : {
                        "type" : "double",
                        "defaultValue" : 1.66565428116883e-10,
                        "interp" : "eioe"
                      },
                      "translation1" : {
                        "type" : "double",
                        "defaultValue" : -8.28137558528397e-11,
                        "interp" : "eioe"
                      },
                      "scale0" : {
                        "type" : "double",
                        "defaultValue" : 2.22988607000261,
                        "interp" : "eioe"
                      },
                      "scale1" : {
                        "type" : "double",
                        "defaultValue" : 2.22988607000261,
                        "interp" : "eioe"
                      }
                    },
                    "effects" : [

                    ],
                    "start" : 27725,
                    "duration" : 1886,
                    "mediaStart" : 0,
                    "mediaDuration" : 1,
                    "scalar" : 1,
                    "metadata" : {
                      "WinSubProjectDisplayName" : "",
                      "clipSpeedAttribute" : false,
                      "default-scale0" : 1.0,
                      "default-scale1" : 1.0,
                      "default-translation0" : 0.0,
                      "default-translation1" : 0.0
                    },
                    "animationTracks" : {

                    }
                  },
                  {
                    "id" : 116,
                    "_type" : "IMFile",
                    "src" : 34,
                    "trackNumber" : 0,
                    "trimStartSum" : 0,
                    "attributes" : {
                      "ident" : "part3showportsecstaticoutput"
                    },
                    "parameters" : {
                      "translation0" : {
                        "type" : "double",
                        "defaultValue" : 1.5828049981792e-10,
                        "interp" : "eioe"
                      },
                      "translation1" : {
                        "type" : "double",
                        "defaultValue" : -27.9069767440982,
                        "interp" : "eioe"
                      },
                      "scale0" : {
                        "type" : "double",
                        "defaultValue" : 2.69068031933463,
                        "interp" : "eioe"
                      },
                      "scale1" : {
                        "type" : "double",
                        "defaultValue" : 2.69068031933463,
                        "interp" : "eioe"
                      }
                    },
                    "effects" : [

                    ],
                    "start" : 29611,
                    "duration" : 396,
                    "mediaStart" : 0,
                    "mediaDuration" : 1,
                    "scalar" : 1,
                    "metadata" : {
                      "WinSubProjectDisplayName" : "",
                      "clipSpeedAttribute" : false,
                      "default-scale0" : 1.0,
                      "default-scale1" : 1.0,
                      "default-translation0" : 0.0,
                      "default-translation1" : -0.5
                    },
                    "animationTracks" : {

                    }
                  },
                  {
                    "id" : 117,
                    "_type" : "IMFile",
                    "src" : 32,
                    "trackNumber" : 0,
                    "trimStartSum" : 0,
                    "attributes" : {
                      "ident" : "part3showportseccounters"
                    },
                    "parameters" : {
                      "translation0" : {
                        "type" : "double",
                        "defaultValue" : 57.684041699017,
                        "interp" : "eioe"
                      },
                      "translation1" : {
                        "type" : "double",
                        "defaultValue" : -4.28197674437689,
                        "interp" : "eioe"
                      },
                      "scale0" : {
                        "type" : "double",
                        "defaultValue" : 2.28180967655858,
                        "interp" : "eioe"
                      },
                      "scale1" : {
                        "type" : "double",
                        "defaultValue" : 2.28180967655858,
                        "interp" : "eioe"
                      }
                    },
                    "effects" : [

                    ],
                    "start" : 30007,
                    "duration" : 664,
                    "mediaStart" : 0,
                    "mediaDuration" : 1,
                    "scalar" : 1,
                    "metadata" : {
                      "WinSubProjectDisplayName" : "",
                      "clipSpeedAttribute" : false,
                      "default-scale0" : 1.0,
                      "default-scale1" : 1.0,
                      "default-translation0" : 0.0,
                      "default-translation1" : -0.5
                    },
                    "animationTracks" : {

                    }
                  },
                  {
                    "id" : 118,
                    "_type" : "IMFile",
                    "src" : 31,
                    "trackNumber" : 0,
                    "trimStartSum" : 0,
                    "attributes" : {
                      "ident" : "part3showportsecsecure"
                    },
                    "parameters" : {
                      "translation0" : {
                        "type" : "double",
                        "defaultValue" : 72.4186046522396,
                        "interp" : "eioe"
                      },
                      "translation1" : {
                        "type" : "double",
                        "defaultValue" : -1.07526432202576e-10,
                        "interp" : "eioe"
                      },
                      "scale0" : {
                        "type" : "double",
                        "defaultValue" : 2.5909281374397,
                        "interp" : "eioe"
                      },
                      "scale1" : {
                        "type" : "double",
                        "defaultValue" : 2.5909281374397,
                        "interp" : "eioe"
                      }
                    },
                    "effects" : [

                    ],
                    "start" : 30671,
                    "duration" : 649,
                    "mediaStart" : 0,
                    "mediaDuration" : 1,
                    "scalar" : 1,
                    "metadata" : {
                      "WinSubProjectDisplayName" : "",
                      "clipSpeedAttribute" : false,
                      "default-scale0" : 1.0,
                      "default-scale1" : 1.0,
                      "default-translation0" : 0.0,
                      "default-translation1" : -0.5
                    },
                    "animationTracks" : {

                    }
                  }
                ]
              },
              {
                "trackIndex" : 3,
                "medias" : [
                  {
                    "id" : 119,
                    "_type" : "IMFile",
                    "src" : 4,
                    "trackNumber" : 0,
                    "trimStartSum" : 0,
                    "attributes" : {
                      "ident" : "camoverflowcartoon"
                    },
                    "parameters" : {
                      "translation0" : {
                        "type" : "double",
                        "defaultValue" : -488.219298245515,
                        "interp" : "eioe"
                      },
                      "translation1" : {
                        "type" : "double",
                        "defaultValue" : -82.4561403507219,
                        "interp" : "eioe"
                      }
                    },
                    "effects" : [

                    ],
                    "start" : 460,
                    "duration" : 907,
                    "mediaStart" : 0,
                    "mediaDuration" : 1,
                    "scalar" : 1,
                    "metadata" : {
                      "WinSubProjectDisplayName" : "",
                      "clipSpeedAttribute" : false,
                      "default-translation0" : -0.5,
                      "default-translation1" : 0.0
                    },
                    "animationTracks" : {

                    }
                  },
                  {
                    "id" : 120,
                    "_type" : "IMFile",
                    "src" : 4,
                    "trackNumber" : 0,
                    "trimStartSum" : 950,
                    "attributes" : {
                      "ident" : "camoverflowcartoon"
                    },
                    "parameters" : {
                      "translation0" : {
                        "type" : "double",
                        "defaultValue" : -488.219298245515,
                        "interp" : "eioe"
                      },
                      "translation1" : {
                        "type" : "double",
                        "defaultValue" : -82.4561403507219,
                        "interp" : "eioe"
                      }
                    },
                    "effects" : [

                    ],
                    "start" : 1367,
                    "duration" : 827,
                    "mediaStart" : 0,
                    "mediaDuration" : 1,
                    "scalar" : 1,
                    "metadata" : {
                      "WinSubProjectDisplayName" : "",
                      "clipSpeedAttribute" : false,
                      "default-translation0" : -0.5,
                      "default-translation1" : 0.0
                    },
                    "animationTracks" : {

                    }
                  },
                  {
                    "id" : 121,
                    "_type" : "Callout",
                    "def" : {
                      "kind" : "remix",
                      "shape" : "text-rectangle",
                      "style" : "basic",
                      "fill-color-blue" : 1.0,
                      "fill-color-green" : 1.0,
                      "fill-color-opacity" : 1.0,
                      "fill-color-red" : 1.0,
                      "height" : 536.04651162792,
                      "stroke-color-blue" : 0.56078431372549,
                      "stroke-color-green" : 0.686274509803922,
                      "stroke-color-opacity" : 1.0,
                      "stroke-color-red" : 0.0196078431372549,
                      "stroke-width" : 2.0,
                      "tail-x" : -43.0232558137964,
                      "tail-y" : 173.02325581396,
                      "width" : 561.627906976789,
                      "word-wrap" : 1.0,
                      "fill-style" : "solid",
                      "horizontal-alignment" : "center",
                      "stroke-style" : "solid",
                      "text" : "Note the range is now on all ports.  Port security should be applied to ALL ports, regardless if they are in use or not.",
                      "vertical-alignment" : "center",
                      "font" : {
                        "color-blue" : 0.266666666666667,
                        "color-green" : 0.231372549019608,
                        "color-opacity" : 1.0,
                        "color-red" : 0.184313725490196,
                        "size" : 64.0,
                        "tracking" : 0.0,
                        "name" : "Montserrat",
                        "weight" : "Regular"
                      },
                      "textAttributes" : {
                        "type" : "textAttributeList",
                        "keyframes" : [
                          {
                            "time" : 0,
                            "value" : [{"name":"fgColor","rangeEnd":120,"rangeStart":0,"value":"(47,59,68,255)","valueType":"color"},{"name":"fontItalic","rangeEnd":120,"rangeStart":0,"value":0,"valueType":"int"},{"name":"underline","rangeEnd":120,"rangeStart":0,"value":0,"valueType":"int"},{"name":"strikethrough","rangeEnd":120,"rangeStart":0,"value":0,"valueType":"int"},{"name":"fontWeight","rangeEnd":120,"rangeStart":0,"value":400,"valueType":"int"},{"name":"fontName","rangeEnd":120,"rangeStart":0,"value":"Montserrat","valueType":"string"},{"name":"fontSize","rangeEnd":120,"rangeStart":0,"value":64,"valueType":"double"}],
                            "duration" : 0
                          }
                        ]
                      }
                    },
                    "attributes" : {
                      "autoRotateText" : true
                    },
                    "parameters" : {
                      "translation0" : 638.372093022603,
                      "translation1" : -55.1140777000031
                    },
                    "effects" : [
                        {
                          "effectName" : "DropShadow",
                          "category" : "categoryVisualEffects",
                          "parameters" : {
                            "angle" : 5.49778714378214,
                            "blur" : 10.0,
                            "color-alpha" : 1.0,
                            "color-blue" : 0.1216,
                            "color-green" : 0.1216,
                            "color-red" : 0.1216,
                            "enabled" : 1,
                            "offset" : 10.0,
                            "opacity" : 0.4
                          }
                        }
                    ],
                    "start" : 14378,
                    "duration" : 976,
                    "mediaStart" : 0,
                    "mediaDuration" : 976,
                    "scalar" : 1,
                    "metadata" : {
                      "WinSubProjectDisplayName" : "",
                      "clipSpeedAttribute" : false,
                      "default-HAlign" : "center",
                      "default-VAlign" : "center",
                      "default-text-attributes" : null,
                      "default-translation0" : 0.0,
                      "default-translation1" : 0.0
                    },
                    "animationTracks" : {

                    }
                  },
                  {
                    "id" : 122,
                    "_type" : "IMFile",
                    "src" : 23,
                    "trackNumber" : 0,
                    "trimStartSum" : 0,
                    "attributes" : {
                      "ident" : "part3staticmac"
                    },
                    "parameters" : {
                      "translation0" : {
                        "type" : "double",
                        "defaultValue" : 451.465122666283,
                        "interp" : "eioe"
                      },
                      "translation1" : {
                        "type" : "double",
                        "defaultValue" : -22.7520500890611,
                        "interp" : "eioe"
                      },
                      "scale0" : {
                        "type" : "double",
                        "defaultValue" : 1.77123730076437,
                        "interp" : "eioe"
                      },
                      "scale1" : {
                        "type" : "double",
                        "defaultValue" : 1.77123730076437,
                        "interp" : "eioe"
                      }
                    },
                    "effects" : [

                    ],
                    "start" : 19588,
                    "duration" : 1375,
                    "mediaStart" : 0,
                    "mediaDuration" : 1,
                    "scalar" : 1,
                    "metadata" : {
                      "WinSubProjectDisplayName" : "",
                      "clipSpeedAttribute" : false,
                      "default-scale0" : 1.0,
                      "default-scale1" : 1.0,
                      "default-translation0" : 0.0,
                      "default-translation1" : -0.5
                    },
                    "animationTracks" : {

                    }
                  },
                  {
                    "id" : 123,
                    "_type" : "Callout",
                    "def" : {
                      "kind" : "remix",
                      "shape" : "text-rectangle",
                      "style" : "basic",
                      "fill-color-blue" : 1.0,
                      "fill-color-green" : 1.0,
                      "fill-color-opacity" : 1.0,
                      "fill-color-red" : 1.0,
                      "height" : 296.511627907066,
                      "stroke-color-blue" : 0.56078431372549,
                      "stroke-color-green" : 0.686274509803922,
                      "stroke-color-opacity" : 1.0,
                      "stroke-color-red" : 0.0196078431372549,
                      "stroke-width" : 2.0,
                      "tail-x" : -467.308139535287,
                      "tail-y" : -93.2558139535332,
                      "width" : 1061.36046511784,
                      "word-wrap" : 1.0,
                      "fill-style" : "solid",
                      "horizontal-alignment" : "center",
                      "stroke-style" : "solid",
                      "text" : "To avoid having to type them in manually, but learn and turn into static, we can use the default nature of the switch to dynamically learn on ingress traffic, and the option 'sticky' to turn them into static addresses.",
                      "vertical-alignment" : "center",
                      "font" : {
                        "color-blue" : 0.266666666666667,
                        "color-green" : 0.231372549019608,
                        "color-opacity" : 1.0,
                        "color-red" : 0.184313725490196,
                        "size" : 64.0,
                        "tracking" : 0.0,
                        "name" : "Montserrat",
                        "weight" : "Regular"
                      },
                      "textAttributes" : {
                        "type" : "textAttributeList",
                        "keyframes" : [
                          {
                            "time" : 0,
                            "value" : [{"name":"fontName","rangeEnd":218,"rangeStart":0,"value":"Montserrat","valueType":"string"},{"name":"fontWeight","rangeEnd":218,"rangeStart":0,"value":400,"valueType":"int"},{"name":"underline","rangeEnd":218,"rangeStart":0,"value":0,"valueType":"int"},{"name":"fontSize","rangeEnd":218,"rangeStart":0,"value":64,"valueType":"double"},{"name":"fontItalic","rangeEnd":218,"rangeStart":0,"value":0,"valueType":"int"},{"name":"strikethrough","rangeEnd":218,"rangeStart":0,"value":0,"valueType":"int"},{"name":"fgColor","rangeEnd":218,"rangeStart":0,"value":"(47,59,68,255)","valueType":"color"}],
                            "duration" : 0
                          }
                        ]
                      }
                    },
                    "attributes" : {
                      "autoRotateText" : true
                    },
                    "parameters" : {
                      "translation0" : 404.517437602557,
                      "translation1" : -272.124140628304
                    },
                    "effects" : [
                        {
                          "effectName" : "DropShadow",
                          "category" : "categoryVisualEffects",
                          "parameters" : {
                            "angle" : 5.49778714378214,
                            "blur" : 10.0,
                            "color-alpha" : 1.0,
                            "color-blue" : 0.1216,
                            "color-green" : 0.1216,
                            "color-red" : 0.1216,
                            "enabled" : 1,
                            "offset" : 10.0,
                            "opacity" : 0.4
                          }
                        }
                    ],
                    "start" : 20963,
                    "duration" : 1018,
                    "mediaStart" : -131,
                    "mediaDuration" : 1018,
                    "scalar" : 1,
                    "metadata" : {
                      "WinSubProjectDisplayName" : "",
                      "clipSpeedAttribute" : false,
                      "default-HAlign" : "center",
                      "default-VAlign" : "center",
                      "default-text-attributes" : null,
                      "default-translation0" : 0.0,
                      "default-translation1" : 0.0
                    },
                    "animationTracks" : {

                    }
                  },
                  {
                    "id" : 124,
                    "_type" : "Callout",
                    "def" : {
                      "kind" : "remix",
                      "shape" : "text-rectangle",
                      "style" : "basic",
                      "fill-color-blue" : {
                        "type" : "double",
                        "defaultValue" : 1.0,
                        "interp" : "linr"
                      },
                      "fill-color-green" : {
                        "type" : "double",
                        "defaultValue" : 1.0,
                        "interp" : "linr"
                      },
                      "fill-color-opacity" : {
                        "type" : "double",
                        "defaultValue" : 1.0,
                        "interp" : "linr"
                      },
                      "fill-color-red" : {
                        "type" : "double",
                        "defaultValue" : 1.0,
                        "interp" : "linr"
                      },
                      "height" : {
                        "type" : "double",
                        "defaultValue" : 150.0,
                        "interp" : "linr"
                      },
                      "stroke-color-blue" : {
                        "type" : "double",
                        "defaultValue" : 0.56078431372549,
                        "interp" : "linr"
                      },
                      "stroke-color-green" : {
                        "type" : "double",
                        "defaultValue" : 0.686274509803922,
                        "interp" : "linr"
                      },
                      "stroke-color-opacity" : {
                        "type" : "double",
                        "defaultValue" : 1.0,
                        "interp" : "linr"
                      },
                      "stroke-color-red" : {
                        "type" : "double",
                        "defaultValue" : 0.0196078431372549,
                        "interp" : "linr"
                      },
                      "stroke-width" : {
                        "type" : "double",
                        "defaultValue" : 2.0,
                        "interp" : "linr"
                      },
                      "tail-x" : {
                        "type" : "double",
                        "defaultValue" : -391.860465116055,
                        "interp" : "linr"
                      },
                      "tail-y" : {
                        "type" : "double",
                        "defaultValue" : -20.0,
                        "interp" : "linr"
                      },
                      "width" : {
                        "type" : "double",
                        "defaultValue" : 1133.72093023211,
                        "interp" : "linr"
                      },
                      "word-wrap" : {
                        "type" : "double",
                        "defaultValue" : 1.0,
                        "interp" : "linr"
                      },
                      "fill-style" : "solid",
                      "horizontal-alignment" : "center",
                      "stroke-style" : "solid",
                      "text" : "For these static entires to survive a switch reboot you MUST save the running-config to startup-config",
                      "vertical-alignment" : "center",
                      "font" : {
                        "color-blue" : {
                          "type" : "double",
                          "defaultValue" : 0.266666666666667,
                          "interp" : "linr"
                        },
                        "color-green" : {
                          "type" : "double",
                          "defaultValue" : 0.231372549019608,
                          "interp" : "linr"
                        },
                        "color-opacity" : {
                          "type" : "double",
                          "defaultValue" : 1.0,
                          "interp" : "linr"
                        },
                        "color-red" : {
                          "type" : "double",
                          "defaultValue" : 0.184313725490196,
                          "interp" : "linr"
                        },
                        "size" : {
                          "type" : "double",
                          "defaultValue" : 64.0,
                          "interp" : "linr"
                        },
                        "tracking" : {
                          "type" : "double",
                          "defaultValue" : 0.0,
                          "interp" : "linr"
                        },
                        "name" : "Montserrat",
                        "weight" : "Regular"
                      },
                      "textAttributes" : {
                        "type" : "textAttributeList",
                        "keyframes" : [
                          {
                            "time" : 0,
                            "value" : [{"name":"fgColor","rangeEnd":102,"rangeStart":0,"value":"(47,59,68,255)","valueType":"color"},{"name":"fontItalic","rangeEnd":102,"rangeStart":0,"value":0,"valueType":"int"},{"name":"strikethrough","rangeEnd":102,"rangeStart":0,"value":0,"valueType":"int"},{"name":"fontName","rangeEnd":102,"rangeStart":0,"value":"Montserrat","valueType":"string"},{"name":"fontWeight","rangeEnd":102,"rangeStart":0,"value":400,"valueType":"int"},{"name":"fontSize","rangeEnd":102,"rangeStart":0,"value":64,"valueType":"double"},{"name":"underline","rangeEnd":102,"rangeStart":0,"value":0,"valueType":"int"}],
                            "duration" : 0
                          }
                        ]
                      }
                    },
                    "attributes" : {
                      "autoRotateText" : true
                    },
                    "parameters" : {
                      "translation0" : {
                        "type" : "double",
                        "defaultValue" : -319.186046513446,
                        "interp" : "eioe"
                      },
                      "translation1" : {
                        "type" : "double",
                        "defaultValue" : -417.01162790714,
                        "interp" : "eioe"
                      }
                    },
                    "effects" : [
                        {
                          "effectName" : "DropShadow",
                          "category" : "categoryVisualEffects",
                          "parameters" : {
                            "angle" : {
                              "type" : "double",
                              "defaultValue" : 5.49778714378214,
                              "interp" : "linr",
                              "uiHints" : {
                                "userInterfaceType" : 0,
                                "unitType" : 0
                              }
                            },
                            "blur" : {
                              "type" : "double",
                              "defaultValue" : 10.0,
                              "interp" : "linr",
                              "uiHints" : {
                                "userInterfaceType" : 0,
                                "unitType" : 0
                              }
                            },
                            "color-alpha" : {
                              "type" : "double",
                              "defaultValue" : 1.0,
                              "interp" : "linr",
                              "uiHints" : {
                                "userInterfaceType" : 0,
                                "unitType" : 0
                              }
                            },
                            "color-blue" : {
                              "type" : "double",
                              "defaultValue" : 0.1216,
                              "interp" : "linr",
                              "uiHints" : {
                                "userInterfaceType" : 0,
                                "unitType" : 0
                              }
                            },
                            "color-green" : {
                              "type" : "double",
                              "defaultValue" : 0.1216,
                              "interp" : "linr",
                              "uiHints" : {
                                "userInterfaceType" : 0,
                                "unitType" : 0
                              }
                            },
                            "color-red" : {
                              "type" : "double",
                              "defaultValue" : 0.1216,
                              "interp" : "linr",
                              "uiHints" : {
                                "userInterfaceType" : 0,
                                "unitType" : 0
                              }
                            },
                            "enabled" : 1,
                            "offset" : {
                              "type" : "double",
                              "defaultValue" : 10.0,
                              "interp" : "linr",
                              "uiHints" : {
                                "userInterfaceType" : 0,
                                "unitType" : 0
                              }
                            },
                            "opacity" : {
                              "type" : "double",
                              "defaultValue" : 0.4,
                              "interp" : "linr",
                              "uiHints" : {
                                "userInterfaceType" : 0,
                                "unitType" : 0
                              }
                            }
                          }
                        }
                    ],
                    "start" : 21981,
                    "duration" : 935,
                    "mediaStart" : -593,
                    "mediaDuration" : 935,
                    "scalar" : 1,
                    "metadata" : {
                      "WinSubProjectDisplayName" : "",
                      "clipSpeedAttribute" : false,
                      "default-HAlign" : "center",
                      "default-VAlign" : "center",
                      "default-text-attributes" : null,
                      "default-translation0" : 0.0,
                      "default-translation1" : 0.0
                    },
                    "animationTracks" : {

                    }
                  },
                  {
                    "id" : 125,
                    "_type" : "Callout",
                    "def" : {
                      "kind" : "remix",
                      "shape" : "text-rectangle",
                      "style" : "basic",
                      "fill-color-blue" : 1.0,
                      "fill-color-green" : 1.0,
                      "fill-color-opacity" : 1.0,
                      "fill-color-red" : 1.0,
                      "height" : 278.755813954092,
                      "stroke-color-blue" : 0.56078431372549,
                      "stroke-color-green" : 0.686274509803922,
                      "stroke-color-opacity" : 1.0,
                      "stroke-color-red" : 0.0196078431372549,
                      "stroke-width" : 2.0,
                      "tail-x" : -53.4883720927579,
                      "tail-y" : -84.3779069770462,
                      "width" : 1731.39534883719,
                      "word-wrap" : 1.0,
                      "fill-style" : "solid",
                      "horizontal-alignment" : "center",
                      "stroke-style" : "solid",
                      "text" : "Aging per port: Absolute—Secure addresses are deleted after the specified aging time. Inactivity—Secure addresses are deleted only if inactive for the specified aging time. *Note  Packet Trace only has an option for  dynamic and is based on 'Inactivity'. \r \rswitchport port-security aging {static | time time type {absolute | inactivity}}",
                      "vertical-alignment" : "center",
                      "font" : {
                        "color-blue" : 0.266666666666667,
                        "color-green" : 0.231372549019608,
                        "color-opacity" : 1.0,
                        "color-red" : 0.184313725490196,
                        "size" : 64.0,
                        "tracking" : 0.0,
                        "name" : "Montserrat",
                        "weight" : "Regular"
                      },
                      "textAttributes" : {
                        "type" : "textAttributeList",
                        "keyframes" : [
                          {
                            "time" : 0,
                            "value" : [{"name":"fgColor","rangeEnd":342,"rangeStart":0,"value":"(47,59,68,255)","valueType":"color"},{"name":"fontItalic","rangeEnd":342,"rangeStart":0,"value":0,"valueType":"int"},{"name":"underline","rangeEnd":342,"rangeStart":0,"value":0,"valueType":"int"},{"name":"fontWeight","rangeEnd":342,"rangeStart":0,"value":400,"valueType":"int"},{"name":"strikethrough","rangeEnd":342,"rangeStart":0,"value":0,"valueType":"int"},{"name":"fontName","rangeEnd":342,"rangeStart":0,"value":"Montserrat","valueType":"string"},{"name":"fontSize","rangeEnd":342,"rangeStart":0,"value":64,"valueType":"double"}],
                            "duration" : 0
                          }
                        ]
                      }
                    },
                    "attributes" : {
                      "autoRotateText" : true
                    },
                    "parameters" : {
                      "translation0" : 9.30232558081212,
                      "translation1" : -352.633720930016
                    },
                    "effects" : [
                        {
                          "effectName" : "DropShadow",
                          "category" : "categoryVisualEffects",
                          "parameters" : {
                            "angle" : 5.49778714378214,
                            "blur" : 10.0,
                            "color-alpha" : 1.0,
                            "color-blue" : 0.1216,
                            "color-green" : 0.1216,
                            "color-red" : 0.1216,
                            "enabled" : 1,
                            "offset" : 10.0,
                            "opacity" : 0.4
                          }
                        }
                    ],
                    "start" : 22916,
                    "duration" : 1590,
                    "mediaStart" : 0,
                    "mediaDuration" : 1590,
                    "scalar" : 1,
                    "metadata" : {
                      "WinSubProjectDisplayName" : "",
                      "clipSpeedAttribute" : false,
                      "default-HAlign" : "center",
                      "default-VAlign" : "center",
                      "default-text-attributes" : null,
                      "default-translation0" : 0.0,
                      "default-translation1" : 0.0
                    },
                    "animationTracks" : {

                    }
                  },
                  {
                    "id" : 126,
                    "_type" : "Callout",
                    "def" : {
                      "kind" : "remix",
                      "shape" : "text-rectangle",
                      "style" : "basic",
                      "fill-color-blue" : {
                        "type" : "double",
                        "defaultValue" : 1.0,
                        "interp" : "linr"
                      },
                      "fill-color-green" : {
                        "type" : "double",
                        "defaultValue" : 1.0,
                        "interp" : "linr"
                      },
                      "fill-color-opacity" : {
                        "type" : "double",
                        "defaultValue" : 1.0,
                        "interp" : "linr"
                      },
                      "fill-color-red" : {
                        "type" : "double",
                        "defaultValue" : 1.0,
                        "interp" : "linr"
                      },
                      "height" : {
                        "type" : "double",
                        "defaultValue" : 343.088069663391,
                        "interp" : "linr"
                      },
                      "stroke-color-blue" : {
                        "type" : "double",
                        "defaultValue" : 0.56078431372549,
                        "interp" : "linr"
                      },
                      "stroke-color-green" : {
                        "type" : "double",
                        "defaultValue" : 0.686274509803922,
                        "interp" : "linr"
                      },
                      "stroke-color-opacity" : {
                        "type" : "double",
                        "defaultValue" : 1.0,
                        "interp" : "linr"
                      },
                      "stroke-color-red" : {
                        "type" : "double",
                        "defaultValue" : 0.0196078431372549,
                        "interp" : "linr"
                      },
                      "stroke-width" : {
                        "type" : "double",
                        "defaultValue" : 2.0,
                        "interp" : "linr"
                      },
                      "tail-x" : {
                        "type" : "double",
                        "defaultValue" : -1449.99999999863,
                        "interp" : "linr"
                      },
                      "tail-y" : {
                        "type" : "double",
                        "defaultValue" : -206.950151215142,
                        "interp" : "linr"
                      },
                      "width" : {
                        "type" : "double",
                        "defaultValue" : 1578.00752589886,
                        "interp" : "linr"
                      },
                      "word-wrap" : {
                        "type" : "double",
                        "defaultValue" : 1.0,
                        "interp" : "linr"
                      },
                      "fill-style" : "solid",
                      "horizontal-alignment" : "center",
                      "stroke-style" : "solid",
                      "text" : "\"Protect\" mode only drops packets from unknown MAC addresses wiolation counterhen the maximum allowed devices are connected, No SYSLOG, No Violation Counter\r\r\"Restrict\" mode also drops unknown packets but additionally sends a notification about the violation, SYSLOG Msg. Increment Violation Counter\r\r\"Shutdown\" mode completely disables the port (ERR_Disabled) if a violation occurs, essentially shutting it down completely, SYSLOG Msg, Increments Violation Counter",
                      "vertical-alignment" : "center",
                      "font" : {
                        "color-blue" : {
                          "type" : "double",
                          "defaultValue" : 0.266666666666667,
                          "interp" : "linr"
                        },
                        "color-green" : {
                          "type" : "double",
                          "defaultValue" : 0.231372549019608,
                          "interp" : "linr"
                        },
                        "color-opacity" : {
                          "type" : "double",
                          "defaultValue" : 1.0,
                          "interp" : "linr"
                        },
                        "color-red" : {
                          "type" : "double",
                          "defaultValue" : 0.184313725490196,
                          "interp" : "linr"
                        },
                        "size" : {
                          "type" : "double",
                          "defaultValue" : 64.0,
                          "interp" : "linr"
                        },
                        "tracking" : {
                          "type" : "double",
                          "defaultValue" : 0.0,
                          "interp" : "linr"
                        },
                        "name" : "Montserrat",
                        "weight" : "Regular"
                      },
                      "textAttributes" : {
                        "type" : "textAttributeList",
                        "keyframes" : [
                          {
                            "time" : 0,
                            "value" : [{"name":"fontName","rangeEnd":465,"rangeStart":0,"value":"Montserrat","valueType":"string"},{"name":"fontSize","rangeEnd":465,"rangeStart":0,"value":40,"valueType":"double"},{"name":"fontItalic","rangeEnd":465,"rangeStart":0,"value":0,"valueType":"int"},{"name":"strikethrough","rangeEnd":465,"rangeStart":0,"value":0,"valueType":"int"},{"name":"fgColor","rangeEnd":465,"rangeStart":0,"value":"(47,59,68,255)","valueType":"color"},{"name":"fontWeight","rangeEnd":465,"rangeStart":0,"value":400,"valueType":"int"},{"name":"underline","rangeEnd":465,"rangeStart":0,"value":0,"valueType":"int"}],
                            "duration" : 0
                          }
                        ]
                      }
                    },
                    "attributes" : {
                      "autoRotateText" : true
                    },
                    "parameters" : {
                      "translation0" : {
                        "type" : "double",
                        "defaultValue" : -4.07851530326298e-10,
                        "interp" : "eioe"
                      },
                      "translation1" : {
                        "type" : "double",
                        "defaultValue" : -320.467591041954,
                        "interp" : "eioe"
                      }
                    },
                    "effects" : [
                        {
                          "effectName" : "DropShadow",
                          "category" : "categoryVisualEffects",
                          "parameters" : {
                            "angle" : {
                              "type" : "double",
                              "defaultValue" : 5.49778714378214,
                              "interp" : "linr",
                              "uiHints" : {
                                "userInterfaceType" : 0,
                                "unitType" : 0
                              }
                            },
                            "blur" : {
                              "type" : "double",
                              "defaultValue" : 10.0,
                              "interp" : "linr",
                              "uiHints" : {
                                "userInterfaceType" : 0,
                                "unitType" : 0
                              }
                            },
                            "color-alpha" : {
                              "type" : "double",
                              "defaultValue" : 1.0,
                              "interp" : "linr",
                              "uiHints" : {
                                "userInterfaceType" : 0,
                                "unitType" : 0
                              }
                            },
                            "color-blue" : {
                              "type" : "double",
                              "defaultValue" : 0.1216,
                              "interp" : "linr",
                              "uiHints" : {
                                "userInterfaceType" : 0,
                                "unitType" : 0
                              }
                            },
                            "color-green" : {
                              "type" : "double",
                              "defaultValue" : 0.1216,
                              "interp" : "linr",
                              "uiHints" : {
                                "userInterfaceType" : 0,
                                "unitType" : 0
                              }
                            },
                            "color-red" : {
                              "type" : "double",
                              "defaultValue" : 0.1216,
                              "interp" : "linr",
                              "uiHints" : {
                                "userInterfaceType" : 0,
                                "unitType" : 0
                              }
                            },
                            "enabled" : 1,
                            "offset" : {
                              "type" : "double",
                              "defaultValue" : 10.0,
                              "interp" : "linr",
                              "uiHints" : {
                                "userInterfaceType" : 0,
                                "unitType" : 0
                              }
                            },
                            "opacity" : {
                              "type" : "double",
                              "defaultValue" : 0.4,
                              "interp" : "linr",
                              "uiHints" : {
                                "userInterfaceType" : 0,
                                "unitType" : 0
                              }
                            }
                          }
                        }
                    ],
                    "start" : 24843,
                    "duration" : 2882,
                    "mediaStart" : 0,
                    "mediaDuration" : 2882,
                    "scalar" : 1,
                    "metadata" : {
                      "WinSubProjectDisplayName" : "",
                      "clipSpeedAttribute" : false,
                      "default-HAlign" : "center",
                      "default-VAlign" : "center",
                      "default-text-attributes" : null,
                      "default-translation0" : 0.0,
                      "default-translation1" : 0.0
                    },
                    "animationTracks" : {

                    }
                  }
                ],
                "transitions" : [
                  {
                    "name" : "Fade",
                    "duration" : 30,
                    "trivial" : false,
                    "useAudioPreRoll" : true,
                    "useVisualPreRoll" : true,
                    "rightMedia" : 119
                  },
                  {
                    "name" : "Fade",
                    "duration" : 136,
                    "trivial" : false,
                    "useAudioPreRoll" : true,
                    "useVisualPreRoll" : true,
                    "leftMedia" : 120
                  }
                ]
              },
              {
                "trackIndex" : 4,
                "medias" : [
                  {
                    "id" : 127,
                    "_type" : "Callout",
                    "def" : {
                      "kind" : "remix",
                      "shape" : "text-rectangle",
                      "style" : "basic",
                      "fill-color-blue" : 1.0,
                      "fill-color-green" : 1.0,
                      "fill-color-opacity" : 1.0,
                      "fill-color-red" : 1.0,
                      "height" : 150.0,
                      "stroke-color-blue" : 0.56078431372549,
                      "stroke-color-green" : 0.686274509803922,
                      "stroke-color-opacity" : 1.0,
                      "stroke-color-red" : 0.0196078431372549,
                      "stroke-width" : 2.0,
                      "tail-x" : -391.860465116055,
                      "tail-y" : -20.0,
                      "width" : 1133.72093023211,
                      "word-wrap" : 1.0,
                      "fill-style" : "solid",
                      "horizontal-alignment" : "center",
                      "stroke-style" : "solid",
                      "text" : "For this static entry to survive a switch reboot you MUST save the running-config to startup-config",
                      "vertical-alignment" : "center",
                      "font" : {
                        "color-blue" : 0.266666666666667,
                        "color-green" : 0.231372549019608,
                        "color-opacity" : 1.0,
                        "color-red" : 0.184313725490196,
                        "size" : 64.0,
                        "tracking" : 0.0,
                        "name" : "Montserrat",
                        "weight" : "Regular"
                      },
                      "textAttributes" : {
                        "type" : "textAttributeList",
                        "keyframes" : [
                          {
                            "time" : 0,
                            "value" : [{"name":"strikethrough","rangeEnd":99,"rangeStart":0,"value":0,"valueType":"int"},{"name":"fgColor","rangeEnd":99,"rangeStart":0,"value":"(47,59,68,255)","valueType":"color"},{"name":"underline","rangeEnd":99,"rangeStart":0,"value":0,"valueType":"int"},{"name":"fontName","rangeEnd":99,"rangeStart":0,"value":"Montserrat","valueType":"string"},{"name":"fontSize","rangeEnd":99,"rangeStart":0,"value":64,"valueType":"double"},{"name":"fontWeight","rangeEnd":99,"rangeStart":0,"value":400,"valueType":"int"},{"name":"fontItalic","rangeEnd":99,"rangeStart":0,"value":0,"valueType":"int"}],
                            "duration" : 0
                          }
                        ]
                      }
                    },
                    "attributes" : {
                      "autoRotateText" : true
                    },
                    "parameters" : {
                      "translation0" : -319.186046513446,
                      "translation1" : -417.01162790714
                    },
                    "effects" : [
                        {
                          "effectName" : "DropShadow",
                          "category" : "categoryVisualEffects",
                          "parameters" : {
                            "angle" : 5.49778714378214,
                            "blur" : 10.0,
                            "color-alpha" : 1.0,
                            "color-blue" : 0.1216,
                            "color-green" : 0.1216,
                            "color-red" : 0.1216,
                            "enabled" : 1,
                            "offset" : 10.0,
                            "opacity" : 0.4
                          }
                        }
                    ],
                    "start" : 20323,
                    "duration" : 640,
                    "mediaStart" : -593,
                    "mediaDuration" : 640,
                    "scalar" : 1,
                    "metadata" : {
                      "WinSubProjectDisplayName" : "",
                      "clipSpeedAttribute" : false,
                      "default-HAlign" : "center",
                      "default-VAlign" : "center",
                      "default-text-attributes" : null,
                      "default-translation0" : 0.0,
                      "default-translation1" : 0.0
                    },
                    "animationTracks" : {

                    }
                  },
                  {
                    "id" : 128,
                    "_type" : "IMFile",
                    "src" : 25,
                    "trackNumber" : 0,
                    "trimStartSum" : 0,
                    "attributes" : {
                      "ident" : "part3stickymac1"
                    },
                    "parameters" : {
                      "translation0" : {
                        "type" : "double",
                        "defaultValue" : 18.909424724028,
                        "interp" : "eioe"
                      },
                      "translation1" : {
                        "type" : "double",
                        "defaultValue" : 202.720930232576,
                        "interp" : "eioe"
                      },
                      "scale0" : {
                        "type" : "double",
                        "defaultValue" : 2.88678090575452,
                        "interp" : "eioe"
                      },
                      "scale1" : {
                        "type" : "double",
                        "defaultValue" : 2.88678090575453,
                        "interp" : "eioe"
                      }
                    },
                    "effects" : [

                    ],
                    "start" : 21641,
                    "duration" : 340,
                    "mediaStart" : 0,
                    "mediaDuration" : 1,
                    "scalar" : 1,
                    "metadata" : {
                      "WinSubProjectDisplayName" : "",
                      "clipSpeedAttribute" : false,
                      "default-scale0" : 1.0,
                      "default-scale1" : 1.0,
                      "default-translation0" : 0.0,
                      "default-translation1" : 0.0
                    },
                    "animationTracks" : {

                    }
                  }
                ]
              },
              {
                "trackIndex" : 5,
                "medias" : [
                ]
              },
              {
                "trackIndex" : 6,
                "medias" : [
                ]
              },
              {
                "trackIndex" : 7,
                "medias" : [
                ]
              },
              {
                "trackIndex" : 8,
                "medias" : [
                ]
              },
              {
                "trackIndex" : 9,
                "medias" : [
                ]
              },
              {
                "trackIndex" : 10,
                "medias" : [
                ]
              }
            ]
          }
        }
      ]
    },
    "trackAttributes" : [
      {
        "ident" : "",
        "audioMuted" : false,
        "videoHidden" : false,
        "metadata" : {
          "IsLocked" : "False",
          "WinTrackHeight" : "56"
        }
      },
      {
        "ident" : "",
        "audioMuted" : false,
        "videoHidden" : false,
        "metadata" : {
          "IsLocked" : "False",
          "WinTrackHeight" : "56"
        }
      },
      {
        "ident" : "",
        "audioMuted" : false,
        "videoHidden" : false,
        "metadata" : {
          "IsLocked" : "False",
          "WinTrackHeight" : "56"
        }
      },
      {
        "ident" : "",
        "audioMuted" : false,
        "videoHidden" : false,
        "metadata" : {
          "IsLocked" : "False",
          "WinTrackHeight" : "56"
        }
      },
      {
        "ident" : "",
        "audioMuted" : false,
        "videoHidden" : false,
        "metadata" : {
          "IsLocked" : "False",
          "WinTrackHeight" : "56"
        }
      },
      {
        "ident" : "",
        "audioMuted" : false,
        "videoHidden" : false,
        "metadata" : {
          "IsLocked" : "False",
          "WinTrackHeight" : "56"
        }
      },
      {
        "ident" : "",
        "audioMuted" : false,
        "videoHidden" : false,
        "metadata" : {
          "IsLocked" : "False",
          "WinTrackHeight" : "56"
        }
      },
      {
        "ident" : "",
        "audioMuted" : false,
        "videoHidden" : false,
        "metadata" : {
          "IsLocked" : "False",
          "WinTrackHeight" : "56"
        }
      },
      {
        "ident" : "",
        "audioMuted" : false,
        "videoHidden" : false,
        "metadata" : {
          "IsLocked" : "False",
          "WinTrackHeight" : "56"
        }
      },
      {
        "ident" : "",
        "audioMuted" : false,
        "videoHidden" : false,
        "metadata" : {
          "IsLocked" : "False",
          "WinTrackHeight" : "56"
        }
      },
      {
        "ident" : "",
        "audioMuted" : false,
        "videoHidden" : false,
        "metadata" : {
          "IsLocked" : "False",
          "WinTrackHeight" : "56"
        }
      }
    ],
    "captionAttributes" : {
      "enabled" : true,
      "fontName" : "Arial",
      "fontSize" : 64,
      "backgroundColor" : [ 0, 0, 0, 191],
      "foregroundColor" : [ 255, 255, 255, 255],
      "lang" : "en",
      "alignment" : 0,
      "defaultFontSize" : true,
      "opacity" : 0.5,
      "backgroundEnabled" : true,
      "backgroundOnlyAroundText" : true
    },
    "backgroundColor" : [ 255, 255, 255, 255]
  },
  "metadata" : {
    "AutoSaveFile" : "",
    "CanvasZoom" : 33,
    "Date" : "2024-10-30 02:50:00 PM",
    "Fit" : 1,
    "IsAutoSave" : "0",
    "Language" : "ENU",
    "ProfileName" : "MP4 with Smart Player (up to 1080p)",
    "ProjectDimensionsChanged" : "1",
    "Title" : "module4 part5 temp",
    "audioNarrationNotes" : "",
    "calloutStyle" : "Basic",
    "canvasDetached" : "False",
    "canvasPositionHeight" : "600",
    "canvasPositionLeft" : "560",
    "canvasPositionTop" : "225",
    "canvasPositionWidth" : "800"
  }
}
